<svg width="400" height="400" viewBox="0 0 400 400" fill="none" xmlns="http://www.w3.org/2000/svg">
<circle cx="200" cy="200" r="200" fill="white"/>
<path d="M283 236.14C283 281.979 245.84 319.14 200 319.14C154.16 319.14 117 281.979 117 236.14C117 190.3 154.16 153.14 200 153.14C245.84 153.14 283 190.3 283 236.14Z" stroke="black" stroke-width="10"/>
<path d="M200 78V155" stroke="black" stroke-width="10"/>
<path d="M273.949 72.2401C274.184 72.5796 274.598 73.5554 273.989 75.8857C273.385 78.1958 271.916 81.1909 269.433 84.69C264.492 91.6526 256.183 99.7073 245.61 107.011C235.038 114.316 224.564 119.237 216.303 121.395C212.152 122.479 208.831 122.793 206.457 122.541C204.062 122.286 203.295 121.553 203.061 121.214C202.826 120.874 202.412 119.899 203.021 117.568C203.625 115.258 205.094 112.263 207.577 108.764C212.518 101.802 220.827 93.7468 231.4 86.4427C241.973 79.1385 252.446 74.2169 260.707 72.0592C264.858 70.9749 268.179 70.6606 270.554 70.9133C272.949 71.1681 273.715 71.9006 273.949 72.2401Z" stroke="black" stroke-width="10"/>
<path d="M126.061 72.2401C125.826 72.5796 125.412 73.5554 126.021 75.8857C126.625 78.1958 128.094 81.1909 130.577 84.69C135.518 91.6526 143.827 99.7073 154.4 107.011C164.973 114.316 175.446 119.237 183.707 121.395C187.858 122.479 191.179 122.793 193.554 122.541C195.949 122.286 196.715 121.553 196.949 121.214C197.184 120.874 197.598 119.899 196.989 117.568C196.385 115.258 194.916 112.263 192.433 108.764C187.492 101.802 179.183 93.7468 168.61 86.4427C158.038 79.1385 147.564 74.2169 139.303 72.0592C135.152 70.9749 131.831 70.6606 129.457 70.9133C127.062 71.1681 126.295 71.9006 126.061 72.2401Z" stroke="black" stroke-width="10"/>
<circle opacity="0.5" cx="239.5" cy="166.5" r="118.5" fill="url(#paint0_linear)"/>
<defs>
<linearGradient id="paint0_linear" x1="239.5" y1="48" x2="239.5" y2="285" gradientUnits="userSpaceOnUse">
<stop stop-color="#0038FF"/>
<stop offset="0.9999" stop-color="#4200FF" stop-opacity="0.28"/>
<stop offset="1" stop-color="#0500FF" stop-opacity="0.28"/>
</linearGradient>
</defs>
</svg>
