<svg width="400" height="422" viewBox="0 0 400 422" fill="none" xmlns="http://www.w3.org/2000/svg">
<circle cx="200" cy="222" r="200" fill="white"/>
<path d="M107.126 221.121L104.298 223.95C96.878 231.37 96.878 243.4 104.298 250.82L172.18 318.702C179.6 326.122 191.63 326.122 199.05 318.702L303.702 214.05C311.122 206.63 311.122 194.6 303.702 187.18L299.459 182.938C292.039 175.518 280.009 175.518 272.589 182.938L197.636 257.891C190.216 265.311 178.186 265.311 170.766 257.891L133.996 221.121C126.576 213.701 114.546 213.701 107.126 221.121Z" stroke="black" stroke-width="10"/>
<path d="M34.1239 169.637L15.435 188.326C8.01507 195.746 8.01506 207.776 15.435 215.196L133.92 333.681C141.34 341.101 153.37 341.1 160.79 333.681L335.681 158.79C343.101 151.37 343.101 139.34 335.681 131.92L314.822 111.061C307.402 103.641 295.372 103.641 287.952 111.061L158.62 240.393C151.2 247.813 139.17 247.813 131.75 240.393L60.9939 169.637C53.574 162.217 41.5439 162.217 34.1239 169.637Z" fill="url(#paint0_linear)" fill-opacity="0.5"/>
<defs>
<linearGradient id="paint0_linear" x1="102.88" y1="100.88" x2="248.235" y2="246.235" gradientUnits="userSpaceOnUse">
<stop stop-color="#1400FF"/>
<stop offset="1" stop-color="#1400FF" stop-opacity="0.38"/>
</linearGradient>
</defs>
</svg>
