<svg width="400" height="400" viewBox="0 0 400 400" fill="none" xmlns="http://www.w3.org/2000/svg">
<circle cx="200" cy="200" r="200" fill="white"/>
<path d="M313 186C313 199.057 302.088 212.274 281.233 222.525C260.702 232.616 231.989 239 200 239C168.011 239 139.298 232.616 118.767 222.525C97.9123 212.274 87 199.057 87 186C87 172.943 97.9123 159.726 118.767 149.475C139.298 139.384 168.011 133 200 133C231.989 133 260.702 139.384 281.233 149.475C302.088 159.726 313 172.943 313 186Z" stroke="black" stroke-width="10"/>
<path d="M88 178V214C88 244.376 138.144 269 200 269C261.856 269 312 244.376 312 214V178" stroke="black" stroke-width="10"/>
<ellipse opacity="0.5" cx="237.063" cy="191.997" rx="126" ry="94" transform="rotate(-133.818 237.063 191.997)" fill="url(#paint0_linear)"/>
<defs>
<linearGradient id="paint0_linear" x1="237.063" y1="97.9972" x2="237.063" y2="285.997" gradientUnits="userSpaceOnUse">
<stop stop-color="#2400FF"/>
<stop offset="1" stop-color="#2400FF" stop-opacity="0.38"/>
</linearGradient>
</defs>
</svg>
