<svg width="36" height="36" viewBox="0 0 36 36" fill="none" xmlns="http://www.w3.org/2000/svg">
<circle cx="18" cy="18" r="17" stroke="#232323" stroke-width="2"/>
<path d="M20.0781 27H16.5381V13.792H20.0781V27ZM16.3306 10.374C16.3306 9.84505 16.5055 9.40967 16.8555 9.06787C17.2135 8.72607 17.6978 8.55518 18.3081 8.55518C18.9103 8.55518 19.3905 8.72607 19.7485 9.06787C20.1066 9.40967 20.2856 9.84505 20.2856 10.374C20.2856 10.9111 20.1025 11.3506 19.7363 11.6924C19.3783 12.0342 18.9022 12.2051 18.3081 12.2051C17.714 12.2051 17.2339 12.0342 16.8677 11.6924C16.5096 11.3506 16.3306 10.9111 16.3306 10.374Z" fill="black"/>
</svg>
