<svg width="352" height="132" viewBox="0 0 352 132" fill="none" xmlns="http://www.w3.org/2000/svg">
<path d="M47.0679 53.865C30.73 47.6411 25.2909 51.6419 13.179 63.7539C3.61073 73.3221 0.482794 79.964 1.06786 93.4206C2.00281 114.924 31.2192 128.956 49.9568 125.421C81.155 119.534 87.4308 61.1116 55.0679 51.865C40.6616 47.7489 60.5873 34.8831 66.6234 31.865C82.1955 24.079 97.0826 16.4953 113.29 9.86501C145.486 -3.30595 185.796 -1.65997 216.846 13.865C230.466 20.675 245.685 30.8348 256.623 41.4206C265.113 49.6358 277.456 55.4846 284.623 64.6428C293.402 75.8604 282.779 64.1461 279.512 59.865C275.29 54.3326 271.147 48.0961 269.068 41.4206C268.774 40.4778 265.158 29.3479 268.846 32.0872C278.322 39.1271 300.892 71.3684 272.623 62.9761C259.518 59.0856 249.03 49.0685 237.068 43.0872C223.59 36.3481 235.725 46.2356 241.068 49.865C249.725 55.7455 259.76 58.2112 269.068 62.865C274.068 65.365 293.995 69.6118 295.735 74.3095C296.797 77.1771 291.5 81.7029 290.179 83.865C287.521 88.2152 287.068 92.6476 287.068 97.6428C287.068 105.479 285.593 113.306 290.179 119.976C304.035 140.131 317.597 127.747 335.068 123.865C339.531 122.873 353.376 122.208 351.068 116.976C347.447 108.769 345.643 99.5007 342.179 91.0872C339.979 85.7445 340.31 77.0295 341.512 71.4206C343.702 61.1997 346.723 61.2415 334.179 64.7539C318.962 69.0145 302.684 67.865 287.068 67.865" stroke="white" stroke-linecap="round" stroke-linejoin="round"/>
</svg>
