<svg width="163" height="27" viewBox="0 0 163 27" fill="none" xmlns="http://www.w3.org/2000/svg">
    <path d="M14.946 24.668V26H1.806V24.668H7.656V4.004C7.656 3.596 7.674 3.164 7.71 2.708L2.094 7.694C1.926 7.838 1.758 7.892 1.59 7.856C1.422 7.82 1.29 7.748 1.194 7.64L0.672 6.92L8.034 0.421998H9.384V24.668H14.946ZM37.4488 13.256C37.4488 15.488 37.2088 17.42 36.7288 19.052C36.2488 20.684 35.5948 22.034 34.7668 23.102C33.9388 24.17 32.9668 24.968 31.8508 25.496C30.7468 26.012 29.5648 26.27 28.3048 26.27C27.0448 26.27 25.8628 26.012 24.7588 25.496C23.6548 24.968 22.6888 24.17 21.8608 23.102C21.0328 22.034 20.3788 20.684 19.8988 19.052C19.4308 17.42 19.1968 15.488 19.1968 13.256C19.1968 11.024 19.4308 9.092 19.8988 7.46C20.3788 5.828 21.0328 4.478 21.8608 3.41C22.6888 2.342 23.6548 1.55 24.7588 1.034C25.8628 0.505998 27.0448 0.241998 28.3048 0.241998C29.5648 0.241998 30.7468 0.505998 31.8508 1.034C32.9668 1.55 33.9388 2.342 34.7668 3.41C35.5948 4.478 36.2488 5.828 36.7288 7.46C37.2088 9.092 37.4488 11.024 37.4488 13.256ZM35.6488 13.256C35.6488 11.192 35.4508 9.428 35.0548 7.964C34.6588 6.5 34.1248 5.306 33.4528 4.382C32.7928 3.446 32.0128 2.762 31.1128 2.33C30.2248 1.898 29.2888 1.682 28.3048 1.682C27.3208 1.682 26.3848 1.898 25.4968 2.33C24.6088 2.762 23.8288 3.446 23.1568 4.382C22.4848 5.306 21.9508 6.5 21.5548 7.964C21.1588 9.428 20.9608 11.192 20.9608 13.256C20.9608 15.332 21.1588 17.102 21.5548 18.566C21.9508 20.018 22.4848 21.212 23.1568 22.148C23.8288 23.072 24.6088 23.75 25.4968 24.182C26.3848 24.602 27.3208 24.812 28.3048 24.812C29.2888 24.812 30.2248 24.602 31.1128 24.182C32.0128 23.75 32.7928 23.072 33.4528 22.148C34.1248 21.212 34.6588 20.018 35.0548 18.566C35.4508 17.102 35.6488 15.332 35.6488 13.256ZM56.7116 24.668V26H43.5716V24.668H49.4216V4.004C49.4216 3.596 49.4396 3.164 49.4756 2.708L43.8596 7.694C43.6916 7.838 43.5236 7.892 43.3556 7.856C43.1876 7.82 43.0556 7.748 42.9596 7.64L42.4376 6.92L49.7996 0.421998H51.1496V24.668H56.7116ZM79.2144 13.256C79.2144 15.488 78.9744 17.42 78.4944 19.052C78.0144 20.684 77.3604 22.034 76.5324 23.102C75.7044 24.17 74.7324 24.968 73.6164 25.496C72.5124 26.012 71.3304 26.27 70.0704 26.27C68.8104 26.27 67.6284 26.012 66.5244 25.496C65.4204 24.968 64.4544 24.17 63.6264 23.102C62.7984 22.034 62.1444 20.684 61.6644 19.052C61.1964 17.42 60.9624 15.488 60.9624 13.256C60.9624 11.024 61.1964 9.092 61.6644 7.46C62.1444 5.828 62.7984 4.478 63.6264 3.41C64.4544 2.342 65.4204 1.55 66.5244 1.034C67.6284 0.505998 68.8104 0.241998 70.0704 0.241998C71.3304 0.241998 72.5124 0.505998 73.6164 1.034C74.7324 1.55 75.7044 2.342 76.5324 3.41C77.3604 4.478 78.0144 5.828 78.4944 7.46C78.9744 9.092 79.2144 11.024 79.2144 13.256ZM77.4144 13.256C77.4144 11.192 77.2164 9.428 76.8204 7.964C76.4244 6.5 75.8904 5.306 75.2184 4.382C74.5584 3.446 73.7784 2.762 72.8784 2.33C71.9904 1.898 71.0544 1.682 70.0704 1.682C69.0864 1.682 68.1504 1.898 67.2624 2.33C66.3744 2.762 65.5944 3.446 64.9224 4.382C64.2504 5.306 63.7164 6.5 63.3204 7.964C62.9244 9.428 62.7264 11.192 62.7264 13.256C62.7264 15.332 62.9244 17.102 63.3204 18.566C63.7164 20.018 64.2504 21.212 64.9224 22.148C65.5944 23.072 66.3744 23.75 67.2624 24.182C68.1504 24.602 69.0864 24.812 70.0704 24.812C71.0544 24.812 71.9904 24.602 72.8784 24.182C73.7784 23.75 74.5584 23.072 75.2184 22.148C75.8904 21.212 76.4244 20.018 76.8204 18.566C77.2164 17.102 77.4144 15.332 77.4144 13.256ZM98.4773 24.668V26H85.3373V24.668H91.1873V4.004C91.1873 3.596 91.2053 3.164 91.2413 2.708L85.6253 7.694C85.4573 7.838 85.2893 7.892 85.1213 7.856C84.9533 7.82 84.8213 7.748 84.7253 7.64L84.2033 6.92L91.5653 0.421998H92.9153V24.668H98.4773ZM120.98 13.256C120.98 15.488 120.74 17.42 120.26 19.052C119.78 20.684 119.126 22.034 118.298 23.102C117.47 24.17 116.498 24.968 115.382 25.496C114.278 26.012 113.096 26.27 111.836 26.27C110.576 26.27 109.394 26.012 108.29 25.496C107.186 24.968 106.22 24.17 105.392 23.102C104.564 22.034 103.91 20.684 103.43 19.052C102.962 17.42 102.728 15.488 102.728 13.256C102.728 11.024 102.962 9.092 103.43 7.46C103.91 5.828 104.564 4.478 105.392 3.41C106.22 2.342 107.186 1.55 108.29 1.034C109.394 0.505998 110.576 0.241998 111.836 0.241998C113.096 0.241998 114.278 0.505998 115.382 1.034C116.498 1.55 117.47 2.342 118.298 3.41C119.126 4.478 119.78 5.828 120.26 7.46C120.74 9.092 120.98 11.024 120.98 13.256ZM119.18 13.256C119.18 11.192 118.982 9.428 118.586 7.964C118.19 6.5 117.656 5.306 116.984 4.382C116.324 3.446 115.544 2.762 114.644 2.33C113.756 1.898 112.82 1.682 111.836 1.682C110.852 1.682 109.916 1.898 109.028 2.33C108.14 2.762 107.36 3.446 106.688 4.382C106.016 5.306 105.482 6.5 105.086 7.964C104.69 9.428 104.492 11.192 104.492 13.256C104.492 15.332 104.69 17.102 105.086 18.566C105.482 20.018 106.016 21.212 106.688 22.148C107.36 23.072 108.14 23.75 109.028 24.182C109.916 24.602 110.852 24.812 111.836 24.812C112.82 24.812 113.756 24.602 114.644 24.182C115.544 23.75 116.324 23.072 116.984 22.148C117.656 21.212 118.19 20.018 118.586 18.566C118.982 17.102 119.18 15.332 119.18 13.256ZM140.243 24.668V26H127.103V24.668H132.953V4.004C132.953 3.596 132.971 3.164 133.007 2.708L127.391 7.694C127.223 7.838 127.055 7.892 126.887 7.856C126.719 7.82 126.587 7.748 126.491 7.64L125.969 6.92L133.331 0.421998H134.681V24.668H140.243ZM162.746 13.256C162.746 15.488 162.506 17.42 162.026 19.052C161.546 20.684 160.892 22.034 160.064 23.102C159.236 24.17 158.264 24.968 157.148 25.496C156.044 26.012 154.862 26.27 153.602 26.27C152.342 26.27 151.16 26.012 150.056 25.496C148.952 24.968 147.986 24.17 147.158 23.102C146.33 22.034 145.676 20.684 145.196 19.052C144.728 17.42 144.494 15.488 144.494 13.256C144.494 11.024 144.728 9.092 145.196 7.46C145.676 5.828 146.33 4.478 147.158 3.41C147.986 2.342 148.952 1.55 150.056 1.034C151.16 0.505998 152.342 0.241998 153.602 0.241998C154.862 0.241998 156.044 0.505998 157.148 1.034C158.264 1.55 159.236 2.342 160.064 3.41C160.892 4.478 161.546 5.828 162.026 7.46C162.506 9.092 162.746 11.024 162.746 13.256ZM160.946 13.256C160.946 11.192 160.748 9.428 160.352 7.964C159.956 6.5 159.422 5.306 158.75 4.382C158.09 3.446 157.31 2.762 156.41 2.33C155.522 1.898 154.586 1.682 153.602 1.682C152.618 1.682 151.682 1.898 150.794 2.33C149.906 2.762 149.126 3.446 148.454 4.382C147.782 5.306 147.248 6.5 146.852 7.964C146.456 9.428 146.258 11.192 146.258 13.256C146.258 15.332 146.456 17.102 146.852 18.566C147.248 20.018 147.782 21.212 148.454 22.148C149.126 23.072 149.906 23.75 150.794 24.182C151.682 24.602 152.618 24.812 153.602 24.812C154.586 24.812 155.522 24.602 156.41 24.182C157.31 23.75 158.09 23.072 158.75 22.148C159.422 21.212 159.956 20.018 160.352 18.566C160.748 17.102 160.946 15.332 160.946 13.256Z" fill="white"/>
</svg>