<svg width="261" height="164" viewBox="0 0 261 164" fill="none" xmlns="http://www.w3.org/2000/svg">
    <path d="M72.169 82.4912C81.3666 108.423 76.55 116.415 53.1951 116.415C44.9698 116.415 38.429 115.56 30.6635 113.661C20.2185 111.107 20.8279 119.025 11.6895 119.025C0.981322 119.025 -5.71914 90.3199 11.6895 90.3199C17.3028 90.3199 40.4927 113.928 41.3363 98.1485C42.2782 80.5318 69.1572 100.388 69.7973 87.7103C70.6447 70.9285 50.0263 72.053 37.7787 72.053C35.4002 72.053 0.854489 90.8725 15.7742 72.6329C20.6612 66.6584 26.1986 66.8339 33.0352 66.8339C39.7184 66.8339 45.9087 60.2682 52.0092 61.7598C57.6024 63.1273 86.3995 80.0661 86.3995 70.7482C86.3995 60.3436 74.2937 58.601 70.3244 51.1766C64.8447 40.9272 77.5142 42.1924 84.0278 45.3776C95.679 51.0751 96.5808 68.4888 106.559 77.2721C124.368 92.9474 86.7722 80.6314 84.5548 83.0711C76.1703 92.2963 99.9941 119.261 81.656 121.635C74.8755 122.512 49.545 121.545 45.1575 128.303C37.5123 140.08 80.4641 139.901 84.0278 139.901C101.965 139.901 103.002 129.15 103.002 112.501C103.002 106.24 111.272 97.9691 116.705 103.948C121.478 109.199 115.327 118.699 123.162 125.404C144.684 143.822 118.102 136.622 107.745 137.292C100.117 137.786 110.45 149.696 113.675 150.485C116.781 151.244 127.308 158.165 129.618 160.198C140.464 169.745 158.572 148.986 149.383 135.987C144.984 129.764 145.62 120.104 140.423 114.386C135.52 108.991 128.76 111.517 126.851 102.063C124.26 89.2347 122.902 75.2801 114.333 64.8042C101.019 48.5273 125.045 37.5539 128.959 52.6263C131.742 63.3418 133.779 79.1537 140.423 88.2902C148.037 98.7628 146.863 112.982 152.281 124.244C155.512 130.957 163.039 139.016 164.535 146.425C165.126 149.35 173.902 163.707 176.394 154.109C176.793 152.573 160.621 107.717 176.526 124.244C183.725 131.725 182.347 137.35 186.013 146.425C190.657 157.921 199.264 151.009 194.314 141.206C189.808 132.282 198.528 128.48 202.088 137.292C204.942 144.358 209.73 149.07 209.73 137.292C209.73 120.48 196.455 102.385 181.269 103.368C176.335 103.687 172.651 108.587 165.853 108.587C156.774 108.587 152.808 110.613 152.808 99.4533C152.808 92.1031 152.416 84.6078 152.808 77.2721C153.245 69.1104 162.295 79.1522 162.295 85.1008C162.295 95.7832 163.545 95.539 172.968 95.539C178.652 95.539 183.641 91.8221 183.641 85.1008C183.641 71.0845 169.582 64.2243 158.738 64.2243C149.271 64.2243 130.736 60.6453 133.966 44.6527C135.104 39.0195 148.916 39.4149 152.808 41.3183C160.214 44.9395 163.271 45.4372 171.782 45.9575C180.196 46.4718 173.657 60.2665 179.952 64.2243C183.644 66.546 187.197 71.9065 190.229 75.2425C194.565 80.0126 191.674 85.9084 196.686 90.3199C202.27 95.2349 205.129 96.7387 207.227 104.817C208.829 110.987 217.666 139.494 223.961 139.901C229.171 140.239 238.191 141.435 238.191 133.378C238.191 124.594 226.333 125.235 226.333 117.72C226.333 107.016 236.882 117.594 238.718 121.635C241.835 128.493 245.395 133.179 253.608 128.158C270.259 117.98 241.138 107.708 233.448 103.948C230.267 102.392 215.593 105.722 214.606 101.918C213.249 96.6929 208.438 87.1847 215.528 84.9558C229.497 80.5646 236.157 85.2317 247.151 96.1189C262.013 110.836 263.42 90.5326 254.266 80.4616C243.504 68.6202 227.058 77.7157 215.66 70.7482C208.379 66.298 202.615 73.8036 202.615 61.6148C202.615 53.2691 213.342 56.3957 219.217 56.3957C230.657 56.3957 247.164 57.6459 254.793 68.1387C260.267 75.6662 253.985 60.943 252.949 59.0052C250.714 54.8254 246.55 44.6669 241.749 43.4929C229.22 40.4295 213.107 43.3479 200.243 43.3479C197.188 43.3479 188.236 55.0084 186.145 44.6527C184.282 35.4317 191.968 35.5192 197.872 35.5192C203.569 35.5192 234.003 35.3384 235.688 28.8504C237.704 21.0879 227.02 17.2524 221.589 17.2524C215.961 17.2524 213.431 23.3585 208.413 24.9361C202.667 26.7421 194.372 25.081 188.385 25.081C177.462 25.081 177.975 18.5998 188.385 17.2524C204.978 15.1044 193.34 -5.20339 180.083 2.89982C174.111 6.55051 169.17 27.6906 159.924 27.6906C152.904 27.6906 156.135 12.4491 155.048 8.26391C152.865 -0.145374 143.548 12.7692 143.321 17.2524C142.278 37.9139 125.829 30.0828 113.675 33.0547C107.533 34.5563 104.354 38.0912 100.103 42.768C95.6064 47.7154 99.5176 33.1349 101.157 30.88C103.972 27.0081 131.231 16.6204 116.178 11.8883C110.905 10.2307 103.623 6.45813 98.2582 12.0333C95.0082 15.4105 92.0213 19.0942 88.7713 22.4715C85.4521 25.9206 81.7933 24.1272 78.0984 26.3858C72.6666 29.7061 64.0103 27.3194 57.9386 27.6906C50.9598 28.1172 42.6816 40.0957 53.1951 40.7384C55.3609 40.8707 70.5404 48.8926 63.7362 51.0316C57.6578 52.9424 48.8584 51.1766 42.5222 51.1766C16.8482 51.1766 41.3363 58.163 41.3363 69.4434" stroke="white" stroke-linecap="round" stroke-linejoin="round"/>
</svg>