<svg width="98" height="160" viewBox="0 0 98 160" fill="none" xmlns="http://www.w3.org/2000/svg">
    <path d="M17.3161 70.2273C24.3898 58.5285 35.4576 42.7556 48.3168 36.326C55.7835 32.5926 64.4074 44.8355 65.902 50.6479C70.5569 68.7503 54.8433 82.2739 54.8433 99.5963C54.8433 105.73 53.6884 111.234 58.1065 115.912C63.705 121.84 61.0952 126.867 56.8374 132.229C45.5274 146.471 16.4172 145.526 1 140.387" stroke="white" stroke-linecap="round" stroke-linejoin="round"/>
    <path d="M25.4742 86.5434C26.3819 81.6012 27.875 71.7786 34.4481 70.3179C38.0248 69.523 40.9885 70.4856 41.6997 74.3969C43.4963 84.2785 38.5271 95.2682 38.5271 105.307C38.5271 111.962 45.006 118.488 37.2581 121.17C31.4185 123.191 12.7682 124.07 18.9477 124.07" stroke="white" stroke-linecap="round" stroke-linejoin="round"/>
    <path d="M23.136 49.9493C26.4383 53.5607 30.1863 58.0403 31.573 50.7755C32.1901 47.5431 30.7895 45.3986 28.8133 43.3401C24.66 39.0141 15.0865 41.3154 16.1183 49.1232C17.0092 55.8646 24.0997 63.6957 30.2326 59.4959C35.7784 55.6982 33.3633 44.4247 27.394 43.4319C16.3557 41.5962 12.4346 60.7903 25.9746 59.8631C28.6514 59.6798 28.1161 49.3634 25.1861 48.3888C19.666 46.5527 15.6792 52.677 21.7167 56.1913C26.2156 58.81 32.391 53.1964 28.1825 48.297C25.0015 44.5939 17.4588 45.3225 17.4588 50.7755C17.4588 56.9824 27.9358 46.6447 20.2974 46.6447C13.0051 46.6447 22.3619 57.2305 20.2185 46.0022C19.6492 43.0198 18.8352 49.1014 18.8781 49.9493C19.0634 53.6173 22.3583 50.1329 21.007 50.1329C18.5743 50.1329 22.4064 54.2678 20.2974 52.8867C16.2839 50.2586 13.7069 44.643 11.7815 40.0355C7.6438 30.1341 6.27852 15.6323 14.8567 8.64186C29.0282 -2.90665 47.6578 -0.0911856 60.9466 8.64204C72.7921 16.4267 78.703 30.063 86.2116 43.4319C92.7567 59.8631 96.8229 74.5 96.8229 93.6793C96.8229 100.308 95.4651 107.053 95.307 113.68C93.5 123 91.5953 127.621 88.7381 133.68C83.806 144.138 67.4608 148.235 57.988 148.995C51.8654 149.487 45.6029 149.087 39.4581 149.087C38.1536 149.087 34.3598 148.322 33.3866 149.454C30.7325 152.544 36.7489 158.018 38.7485 158.634C46.641 161.066 48.5753 150.735 42.139 146.701C35.6897 142.658 24.2401 148.445 34.1751 155.329C40.728 159.87 48.0333 153.102 41.2717 147.435C32.3422 139.95 28.5248 154.245 33.7809 155.605C41.5171 157.606 43.2553 142.842 34.8059 142.478C24.1705 142.019 35.0605 157.307 37.96 150.556C43.2172 138.316 28.4744 138.638 30.3114 148.261C32.6471 160.497 49.5395 142.954 31.9673 142.478C18.8994 142.124 35.9728 165.85 37.2503 153.952C38.9445 138.173 22.8713 145.474 28.8133 152.392" stroke="white" stroke-linecap="round" stroke-linejoin="round"/>
</svg>