<svg width="417" height="285" viewBox="0 0 417 285" fill="none" xmlns="http://www.w3.org/2000/svg">
    <path d="M3.5 184.721C3.5 184.721 104.25 104.721 205 104.721C305.75 104.721 406.5 184.721 406.5 184.721" stroke="white" stroke-width="6" stroke-linecap="round"/>
    <path d="M3.5 201.721C3.5 201.721 104.25 281.721 205 281.721C305.75 281.721 406.5 201.721 406.5 201.721" stroke="white" stroke-width="6" stroke-linecap="round"/>
    <path fill-rule="evenodd" clip-rule="evenodd" d="M205 255.721C241.451 255.721 271 226.172 271 189.721C271 153.27 241.451 123.721 205 123.721C168.549 123.721 139 153.27 139 189.721C139 226.172 168.549 255.721 205 255.721Z" fill="white"/>
    <path fill-rule="evenodd" clip-rule="evenodd" d="M227.5 193.721C239.926 193.721 250 183.647 250 171.221C250 158.794 239.926 148.721 227.5 148.721C215.074 148.721 205 158.794 205 171.221C205 183.647 215.074 193.721 227.5 193.721Z" fill="#3544C9"/>
    <path d="M3.5 61.2209L48.5 130.221" stroke="white" stroke-width="6" stroke-linecap="round"/>
    <path d="M75.8572 24.4518L110.816 99.043" stroke="white" stroke-width="6" stroke-linecap="round"/>
    <path d="M156.605 4.63554L176.689 84.5269" stroke="white" stroke-width="6" stroke-linecap="round"/>
    <path d="M413.5 61.3605L368.5 130.36" stroke="white" stroke-width="6" stroke-linecap="round"/>
    <path d="M341.143 24.5914L306.184 99.1827" stroke="white" stroke-width="6" stroke-linecap="round"/>
    <path d="M260.395 4.77518L240.311 84.6665" stroke="white" stroke-width="6" stroke-linecap="round"/>
</svg>