<?xml version="1.0" encoding="UTF-8"?>
<svg width="378px" height="112px" viewBox="0 0 378 112" version="1.1" xmlns="http://www.w3.org/2000/svg" xmlns:xlink="http://www.w3.org/1999/xlink">
    <!-- Generator: Sketch 54.1 (76490) - https://sketchapp.com -->
    <title>Group 16</title>
    <desc>Created with Sketch.</desc>
    <defs>
        <path d="M49,58.8 C67.0413018,58.8 83.3746352,49 98,29.4 C83.3746352,9.8 67.0413018,0 49,0 C30.9586982,0 14.6253648,9.8 0,29.4 C14.6253648,49 30.9586982,58.8 49,58.8 Z" id="path-1"></path>
    </defs>
    <g id="Page-1" stroke="none" stroke-width="1" fill="none" fill-rule="evenodd">
        <g id="Group-16">
            <rect id="Rectangle" fill="#131415" x="0" y="0" width="378" height="112"></rect>
            <g id="Group-13" transform="translate(31.000000, 0.000000)">
                <g id="Group-14" transform="translate(204.400000, 14.000000)">
                    <mask id="mask-2" fill="white">
                        <use xlink:href="#path-1"></use>
                    </mask>
                    <use id="Mask" fill="#D8D8D8" xlink:href="#path-1"></use>
                    <g mask="url(#mask-2)">
                        <g transform="translate(-2.800000, -16.800000)">
                            <g id="Group-12" stroke-width="1" fill="none" transform="translate(16.800000, 47.600000)">
                                <polygon id="Rectangle" fill="#F8E71C" points="17.8888889 32.9 49.3522876 0 64.4 40.6 34.9885621 47.6"></polygon>
                                <ellipse id="Oval" fill="#7ED321" cx="26.8333333" cy="14.6461538" rx="12.5222222" ry="14.6461538"></ellipse>
                                <path d="M3.58497768,3.66153846 L3.58497768,3.66153846 C5.78432744,3.66153846 7.79720307,4.89706467 8.79280738,6.85816422 L14.1759307,17.4616145 C15.5818563,20.2309476 14.4765961,23.6156635 11.707263,25.021589 C10.9184404,25.4220557 10.0462647,25.6307692 9.16160962,25.6307692 L9.16160962,25.6307692 C4.10179234,25.6307692 -4.70942162e-15,21.5289769 -5.32907052e-15,16.4691596 L-8.8817842e-16,7.24651614 C-1.13064973e-15,5.26658764 1.60504918,3.66153846 3.58497768,3.66153846 Z" id="Rectangle" fill="#4C37C2"></path>
                                <polygon id="Rectangle" fill="#F84E5A" points="7.63903904 20.4435897 20.6535354 18.3076923 28.6222222 28.9135279 25.9659933 39.5193634 17.6178451 43.9384615 7.75185185 42.1708223 3.57777778 31.5649867"></polygon>
                            </g>
                            <g id="Group-12" stroke-width="1" fill="none" transform="translate(33.600000, 22.400000)">
                                <polygon id="Rectangle" fill="#F8E71C" points="17.8888889 32.9 49.3522876 0 64.4 40.6 34.9885621 47.6"></polygon>
                                <ellipse id="Oval" fill="#7ED321" cx="26.8333333" cy="14.6461538" rx="12.5222222" ry="14.6461538"></ellipse>
                                <path d="M3.58497768,3.66153846 L3.58497768,3.66153846 C5.78432744,3.66153846 7.79720307,4.89706467 8.79280738,6.85816422 L14.1759307,17.4616145 C15.5818563,20.2309476 14.4765961,23.6156635 11.707263,25.021589 C10.9184404,25.4220557 10.0462647,25.6307692 9.16160962,25.6307692 L9.16160962,25.6307692 C4.10179234,25.6307692 4.17236258e-15,21.5289769 3.55271368e-15,16.4691596 L-4.4408921e-16,7.24651614 C-6.8656052e-16,5.26658764 1.60504918,3.66153846 3.58497768,3.66153846 Z" id="Rectangle" fill="#4C37C2"></path>
                                <polygon id="Rectangle" fill="#F84E5A" points="7.63903904 20.4435897 20.6535354 18.3076923 28.6222222 28.9135279 25.9659933 39.5193634 17.6178451 43.9384615 7.75185185 42.1708223 3.57777778 31.5649867"></polygon>
                            </g>
                            <g id="Group-12" stroke-width="1" fill="none" transform="translate(96.600000, 71.400000) scale(-1, 1) translate(-96.600000, -71.400000) translate(64.400000, 47.600000)">
                                <polygon id="Rectangle" fill="#F8E71C" points="17.8888889 32.9 49.3522876 0 64.4 40.6 34.9885621 47.6"></polygon>
                                <ellipse id="Oval" fill="#7ED321" cx="26.8333333" cy="14.6461538" rx="12.5222222" ry="14.6461538"></ellipse>
                                <path d="M3.58497768,3.66153846 L3.58497768,3.66153846 C5.78432744,3.66153846 7.79720307,4.89706467 8.79280738,6.85816422 L14.1759307,17.4616145 C15.5818563,20.2309476 14.4765961,23.6156635 11.707263,25.021589 C10.9184404,25.4220557 10.0462647,25.6307692 9.16160962,25.6307692 L9.16160962,25.6307692 C4.10179234,25.6307692 -4.70942162e-15,21.5289769 -5.32907052e-15,16.4691596 L-8.8817842e-16,7.24651614 C-1.13064973e-15,5.26658764 1.60504918,3.66153846 3.58497768,3.66153846 Z" id="Rectangle" fill="#4C37C2"></path>
                                <polygon id="Rectangle" fill="#F84E5A" points="7.63903904 20.4435897 20.6535354 18.3076923 28.6222222 28.9135279 25.9659933 39.5193634 17.6178451 43.9384615 7.75185185 42.1708223 3.57777778 31.5649867"></polygon>
                            </g>
                            <g id="Group-12" stroke-width="1" fill="none" transform="translate(64.400000, 2.800000)">
                                <polygon id="Rectangle" fill="#F8E71C" points="17.8888889 32.9 49.3522876 0 64.4 40.6 34.9885621 47.6"></polygon>
                                <ellipse id="Oval" fill="#7ED321" cx="26.8333333" cy="14.6461538" rx="12.5222222" ry="14.6461538"></ellipse>
                                <path d="M3.58497768,3.66153846 L3.58497768,3.66153846 C5.78432744,3.66153846 7.79720307,4.89706467 8.79280738,6.85816422 L14.1759307,17.4616145 C15.5818563,20.2309476 14.4765961,23.6156635 11.707263,25.021589 C10.9184404,25.4220557 10.0462647,25.6307692 9.16160962,25.6307692 L9.16160962,25.6307692 C4.10179234,25.6307692 -2.93306478e-15,21.5289769 -3.55271368e-15,16.4691596 L4.4408921e-16,7.24651614 C2.016179e-16,5.26658764 1.60504918,3.66153846 3.58497768,3.66153846 Z" id="Rectangle" fill="#4C37C2"></path>
                                <polygon id="Rectangle" fill="#F84E5A" points="7.63903904 20.4435897 20.6535354 18.3076923 28.6222222 28.9135279 25.9659933 39.5193634 17.6178451 43.9384615 7.75185185 42.1708223 3.57777778 31.5649867"></polygon>
                            </g>
                            <g id="Group-12" stroke-width="1" fill="none" transform="translate(105.000000, 37.800000) scale(-1, -1) translate(-105.000000, -37.800000) translate(72.800000, 14.000000)">
                                <polygon id="Rectangle" fill="#F8E71C" points="17.8888889 32.9 49.3522876 0 64.4 40.6 34.9885621 47.6"></polygon>
                                <ellipse id="Oval" fill="#7ED321" cx="26.8333333" cy="14.6461538" rx="12.5222222" ry="14.6461538"></ellipse>
                                <path d="M3.58497768,3.66153846 L3.58497768,3.66153846 C5.78432744,3.66153846 7.79720307,4.89706467 8.79280738,6.85816422 L14.1759307,17.4616145 C15.5818563,20.2309476 14.4765961,23.6156635 11.707263,25.021589 C10.9184404,25.4220557 10.0462647,25.6307692 9.16160962,25.6307692 L9.16160962,25.6307692 C4.10179234,25.6307692 4.17236258e-15,21.5289769 3.55271368e-15,16.4691596 L-4.4408921e-16,7.24651614 C-6.8656052e-16,5.26658764 1.60504918,3.66153846 3.58497768,3.66153846 Z" id="Rectangle" fill="#4C37C2"></path>
                                <polygon id="Rectangle" fill="#F84E5A" points="7.63903904 20.4435897 20.6535354 18.3076923 28.6222222 28.9135279 25.9659933 39.5193634 17.6178451 43.9384615 7.75185185 42.1708223 3.57777778 31.5649867"></polygon>
                            </g>
                            <g id="Group-12" stroke-width="1" fill="none" transform="translate(0.000000, 2.800000)">
                                <polygon id="Rectangle" fill="#F8E71C" points="17.8888889 32.9 49.3522876 0 64.4 40.6 34.9885621 47.6"></polygon>
                                <ellipse id="Oval" fill="#7ED321" cx="26.8333333" cy="14.6461538" rx="12.5222222" ry="14.6461538"></ellipse>
                                <path d="M3.58497768,3.66153846 L3.58497768,3.66153846 C5.78432744,3.66153846 7.79720307,4.89706467 8.79280738,6.85816422 L14.1759307,17.4616145 C15.5818563,20.2309476 14.4765961,23.6156635 11.707263,25.021589 C10.9184404,25.4220557 10.0462647,25.6307692 9.16160962,25.6307692 L9.16160962,25.6307692 C4.10179234,25.6307692 -2.93306478e-15,21.5289769 -3.55271368e-15,16.4691596 L4.4408921e-16,7.24651614 C2.016179e-16,5.26658764 1.60504918,3.66153846 3.58497768,3.66153846 Z" id="Rectangle" fill="#4C37C2"></path>
                                <polygon id="Rectangle" fill="#F84E5A" points="7.63903904 20.4435897 20.6535354 18.3076923 28.6222222 28.9135279 25.9659933 39.5193634 17.6178451 43.9384615 7.75185185 42.1708223 3.57777778 31.5649867"></polygon>
                            </g>
                            <g id="Group-12" stroke-width="1" fill="none" transform="translate(0.000000, 44.800000)">
                                <polygon id="Rectangle" fill="#A12DE0" points="17.8888889 32.9 49.3522876 0 64.4 40.6 34.9885621 47.6"></polygon>
                                <ellipse id="Oval" fill="#B388FF" cx="23.7222222" cy="14.6461538" rx="12.5222222" ry="14.6461538"></ellipse>
                                <path d="M3.58497768,3.66153846 L3.58497768,3.66153846 C5.78432744,3.66153846 7.79720307,4.89706467 8.79280738,6.85816422 L14.1759307,17.4616145 C15.5818563,20.2309476 14.4765961,23.6156635 11.707263,25.021589 C10.9184404,25.4220557 10.0462647,25.6307692 9.16160962,25.6307692 L9.16160962,25.6307692 C4.10179234,25.6307692 -2.93306478e-15,21.5289769 -3.55271368e-15,16.4691596 L4.4408921e-16,7.24651614 C2.016179e-16,5.26658764 1.60504918,3.66153846 3.58497768,3.66153846 Z" id="Rectangle" fill="#4C37C2"></path>
                            </g>
                            <g id="Group-12" stroke-width="1" fill="none" transform="translate(0.000000, 14.000000)">
                                <polygon id="Rectangle" fill="#4C37C2" points="17.8888889 32.9 49.3522876 0 64.4 40.6 34.9885621 47.6"></polygon>
                                <ellipse id="Oval" fill="#1B42E3" cx="26.8333333" cy="14.6461538" rx="12.5222222" ry="14.6461538"></ellipse>
                                <path d="M3.58497768,3.66153846 L3.58497768,3.66153846 C5.78432744,3.66153846 7.79720307,4.89706467 8.79280738,6.85816422 L14.1759307,17.4616145 C15.5818563,20.2309476 14.4765961,23.6156635 11.707263,25.021589 C10.9184404,25.4220557 10.0462647,25.6307692 9.16160962,25.6307692 L9.16160962,25.6307692 C4.10179234,25.6307692 -2.93306478e-15,21.5289769 -3.55271368e-15,16.4691596 L4.4408921e-16,7.24651614 C2.016179e-16,5.26658764 1.60504918,3.66153846 3.58497768,3.66153846 Z" id="Rectangle" fill="#4C37C2"></path>
                                <polygon id="Rectangle" fill="#805ACB" points="7.63903904 20.4435897 20.6535354 18.3076923 28.6222222 28.9135279 25.9659933 39.5193634 17.6178451 43.9384615 7.75185185 42.1708223 3.57777778 31.5649867"></polygon>
                            </g>
                            <g id="Group-12" stroke-width="1" fill="none" transform="translate(64.400000, 60.200000) scale(1, -1) translate(-64.400000, -60.200000) translate(22.400000, 36.400000)">
                                <polygon id="Rectangle" fill="#4C37C2" points="37.4888889 32.9 68.9522876 0 84 40.6 54.5885621 47.6"></polygon>
                                <ellipse id="Oval" fill="#5A2DEF" cx="46.4333333" cy="14.6461538" rx="12.5222222" ry="14.6461538"></ellipse>
                                <path d="M17.5126781,5.6 L17.5126781,5.6 C21.4962008,5.6 25.2571102,7.43712957 27.7058196,10.5791473 L33.6450776,18.2 C36.2942434,21.5992297 35.6861965,26.5024231 32.2869667,29.1515889 C30.9162217,30.2198694 29.22809,30.8 27.4902277,30.8 L23.8,30.8 C16.8412122,30.8 11.2,25.1587878 11.2,18.2 L11.2,11.9126781 C11.2,8.42628225 14.0262822,5.6 17.5126781,5.6 Z" id="Rectangle" fill="#A12DE0"></path>
                                <polygon id="Rectangle" fill="#5A2DEF" points="4.08648649 2.33333333 17.1818182 0 25.2 11.5862069 22.5272727 23.1724138 14.1272727 28 4.2 26.0689655 0 14.4827586"></polygon>
                                <polygon id="Rectangle" fill="#BD10E0" points="27.239039 20.4435897 40.2535354 18.3076923 48.2222222 28.9135279 45.5659933 39.5193634 37.2178451 43.9384615 27.3518519 42.1708223 23.1777778 31.5649867"></polygon>
                            </g>
                            <polygon id="Rectangle" fill="#5A2DEF" points="50.4 35.7 82.6 2.8 98 43.4 67.9 50.4"></polygon>
                            <ellipse id="Oval" fill="#B725FA" cx="60.2" cy="16.8" rx="12.6" ry="14"></ellipse>
                            <path d="M38.5098607,-1.98951966e-13 L38.5098607,-1.98951966e-13 C41.5365687,-3.23167773e-13 44.3215821,1.65315199 45.7711029,4.31019 L52.6857579,16.98507 C54.6557159,20.5960933 53.3253695,25.1203725 49.7143462,27.0903304 C48.6202125,27.6872242 47.3937809,28 46.1474219,28 L46.1474219,28 C39.2176721,28 33.6,22.3823279 33.6,15.4525781 L33.6,4.90986073 C33.6,2.19821953 35.7982195,-8.76664704e-14 38.5098607,-1.98951966e-13 Z" id="Rectangle" fill="#4C37C2"></path>
                            <polygon id="Rectangle" fill="#C9B0FB" points="40.4864865 21.7 53.5818182 19.6 61.6 30.0275862 58.9272727 40.4551724 50.5272727 44.8 40.6 43.062069 36.4 32.6344828"></polygon>
                            <polygon id="Rectangle" fill="#F8E71C" points="92.4 46.9 124.6 14 140 54.6 109.9 61.6"></polygon>
                            <ellipse id="Oval" fill="#7ED321" cx="102.2" cy="28" rx="12.6" ry="14"></ellipse>
                            <path d="M79.1070434,16.8 L79.1070434,16.8 C81.2526441,16.8 83.2102678,18.0239666 84.1498349,19.9529083 L89.6001988,31.1425676 C90.9554153,33.9248426 89.7985559,37.2789423 87.0162808,38.6341588 C86.2518588,39.0065007 85.4127262,39.2 84.5624442,39.2 L84.5624442,39.2 C79.6126229,39.2 75.6,35.1873771 75.6,30.2375558 L75.6,20.3070434 C75.6,18.3701568 77.1701568,16.8 79.1070434,16.8 Z" id="Rectangle" fill="#4C37C2"></path>
                            <polygon id="Rectangle" fill="#A12DE0" points="82.4864865 32.9 95.5818182 30.8 103.6 41.2275862 100.927273 51.6551724 92.5272727 56 82.6 54.262069 78.4 43.8344828"></polygon>
                            <polygon id="Rectangle" fill="#F8E71C" transform="translate(110.600000, 71.400000) scale(1, -1) translate(-110.600000, -71.400000) " points="86.8 80.5 119 47.6 134.4 88.2 104.3 95.2"></polygon>
                            <ellipse id="Oval" fill="#7ED321" transform="translate(93.800000, 81.200000) scale(1, -1) translate(-93.800000, -81.200000) " cx="93.8" cy="81.2" rx="12.6" ry="14"></ellipse>
                            <path d="M70.7070434,70 L70.7070434,70 C72.8526441,70 74.8102678,71.2239666 75.7498349,73.1529083 L81.2001988,84.3425676 C82.5554153,87.1248426 81.3985559,90.4789423 78.6162808,91.8341588 C77.8518588,92.2065007 77.0127262,92.4 76.1624442,92.4 L76.1624442,92.4 C71.2126229,92.4 67.2,88.3873771 67.2,83.4375558 L67.2,73.5070434 C67.2,71.5701568 68.7701568,70 70.7070434,70 Z" id="Rectangle" fill="#4C37C2" transform="translate(74.200000, 81.200000) scale(1, -1) translate(-74.200000, -81.200000) "></path>
                            <polygon id="Rectangle" fill="#B388FF" transform="translate(85.400000, 65.800000) scale(1, -1) translate(-85.400000, -65.800000) " points="76.8864865 55.3 89.9818182 53.2 98 63.6275862 95.3272727 74.0551724 86.9272727 78.4 77 76.662069 72.8 66.2344828"></polygon>
                        </g>
                    </g>
                </g>
                <text id="reface" font-family="Montserrat-Italic, Montserrat" font-size="100.8" font-style="italic" font-weight="normal" fill="#FFFFFF">
                    <tspan x="0" y="98">reface</tspan>
                </text>
            </g>
        </g>
    </g>
</svg>