<?xml version="1.0" encoding="UTF-8"?>
<svg width="296px" height="86px" viewBox="0 0 296 86" version="1.1" xmlns="http://www.w3.org/2000/svg" xmlns:xlink="http://www.w3.org/1999/xlink">
    <!-- Generator: Sketch 53.2 (72643) - https://sketchapp.com -->
    <title>Group 2</title>
    <desc>Created with Sketch.</desc>
    <g id="Page-1" stroke="none" stroke-width="1" fill="none" fill-rule="evenodd">
        <g id="Artboard" transform="translate(-524.000000, -375.000000)">
            <g id="Group-2" transform="translate(524.000000, 375.000000)">
                <g id="reface-2" fill="#3B3B3E" fill-rule="nonzero">
                    <path d="M0,36.2304688 L10.9863281,36.2304688 L10.9863281,40.4785156 C13.0045674,38.3626196 14.7949141,36.9140664 16.3574219,36.1328125 C17.9524819,35.3190063 19.8404839,34.9121094 22.0214844,34.9121094 C24.9186343,34.9121094 27.9459478,35.8561104 31.1035156,37.7441406 L26.0742188,47.8027344 C23.990875,46.3053311 21.9563901,45.5566406 19.9707031,45.5566406 C13.9810898,45.5566406 10.9863281,50.081335 10.9863281,59.1308594 L10.9863281,83.7890625 L0,83.7890625 L0,36.2304688 Z M80.0292969,62.5976562 L45.9472656,62.5976562 C46.2402358,66.5039258 47.5097544,69.6126187 49.7558594,71.9238281 C52.0019644,74.2024854 54.8827949,75.3417969 58.3984375,75.3417969 C61.1328262,75.3417969 63.3951733,74.6907617 65.1855469,73.3886719 C66.9433682,72.086582 68.9453013,69.677752 71.1914062,66.1621094 L80.46875,71.3378906 C79.0364512,73.7793091 77.5227944,75.8707595 75.9277344,77.6123047 C74.3326743,79.3538499 72.623707,80.7861272 70.8007812,81.9091797 C68.9778555,83.0322322 67.0084741,83.8541641 64.8925781,84.375 C62.7766821,84.8958359 60.4817832,85.15625 58.0078125,85.15625 C50.9114229,85.15625 45.2148652,82.877627 40.9179688,78.3203125 C36.6210723,73.7304458 34.4726562,67.6432671 34.4726562,60.0585938 C34.4726562,52.5390249 36.5559688,46.4518462 40.7226562,41.796875 C44.921896,37.2070083 50.4882466,34.9121094 57.421875,34.9121094 C64.4206079,34.9121094 69.9544067,37.1419048 74.0234375,41.6015625 C78.059916,46.028668 80.078125,52.1646743 80.078125,60.0097656 L80.0292969,62.5976562 Z M68.75,53.6132812 C67.2200444,47.753877 63.5254199,44.8242188 57.6660156,44.8242188 C56.3313735,44.8242188 55.0781309,45.0276672 53.90625,45.4345703 C52.7343691,45.8414734 51.6682991,46.427405 50.7080078,47.1923828 C49.7477166,47.9573606 48.9257847,48.8769478 48.2421875,49.9511719 C47.5585903,51.025396 47.0377622,52.2460869 46.6796875,53.6132812 L68.75,53.6132812 Z M103.417969,46.484375 L103.417969,83.7890625 L92.3828125,83.7890625 L92.3828125,46.484375 L88.4765625,46.484375 L88.4765625,36.2304688 L92.3828125,36.2304688 L92.3828125,17.8710938 C92.3828125,11.8814805 93.4244687,7.64975195 95.5078125,5.17578125 C98.3724102,1.72524316 102.539035,0 108.007812,0 C109.960947,0 112.418605,0.569655762 115.380859,1.70898438 L115.380859,12.9394531 L114.257812,12.3535156 C111.881499,11.1490825 109.928393,10.546875 108.398438,10.546875 C106.445303,10.546875 105.126957,11.2467378 104.443359,12.6464844 C103.759762,14.0136787 103.417969,16.6503711 103.417969,20.5566406 L103.417969,36.2304688 L115.380859,36.2304688 L115.380859,46.484375 L103.417969,46.484375 Z M184.276902,36.2304688 L194.657227,36.2304688 L194.657227,83.7890625 L184.276902,83.7890625 L184.276902,78.8085938 C176.601443,83.0403857 168.346306,85.15625 159.511245,85.15625 C148.356981,85.15625 139.135524,82.7799717 131.846599,78.0273438 C124.612893,73.1770591 120.996094,67.1224321 120.996094,59.8632813 C120.996094,52.7343394 124.612893,46.7936436 131.846599,42.0410156 C139.080305,37.2883877 148.136107,34.9121094 159.014276,34.9121094 C168.401528,34.9121094 176.822319,37.1907324 184.276902,41.7480469 L184.276902,36.2304688 Z M132.226562,59.8632812 C132.226562,64.4205957 134.507562,68.1314961 139.069628,70.9960938 C143.75335,73.8932437 149.653534,75.3417969 156.770358,75.3417969 C164.373802,75.3417969 170.517293,73.9420713 175.201015,71.1425781 C179.884737,68.2454282 182.226562,64.5670796 182.226562,60.1074219 C182.226562,55.6477642 179.884737,51.9694155 175.201015,49.0722656 C170.517293,46.2402202 164.434629,44.8242188 156.95284,44.8242188 C149.896844,44.8242188 143.996659,46.2564961 139.25211,49.1210938 C134.568388,52.0182437 132.226562,55.598937 132.226562,59.8632812 Z M241.415039,37.1582031 L241.415039,51.7578125 C238.908516,48.6979014 236.662445,46.598313 234.676758,45.4589844 C232.723623,44.2871035 230.428724,43.7011719 227.791992,43.7011719 C223.657857,43.7011719 220.223646,45.1497251 217.489258,48.046875 C214.754869,50.9440249 213.387695,54.5735459 213.387695,58.9355469 C213.387695,63.3952046 214.706042,67.0572773 217.342773,69.921875 C220.012058,72.7864727 223.413716,74.21875 227.547852,74.21875 C230.184583,74.21875 232.512034,73.6490942 234.530273,72.5097656 C236.483408,71.4029893 238.778307,69.2545732 241.415039,66.0644531 L241.415039,80.5664062 C236.955381,82.8776157 232.495791,84.0332031 228.036133,84.0332031 C220.679325,84.0332031 214.527043,81.6569248 209.579102,76.9042969 C204.63116,72.1191167 202.157227,66.1784209 202.157227,59.0820312 C202.157227,51.9856416 204.663712,45.9961182 209.676758,41.1132812 C214.689804,36.2304443 220.842086,33.7890625 228.133789,33.7890625 C232.821312,33.7890625 237.248352,34.9120981 241.415039,37.1582031 Z M295.370117,61.4746094 L261.288086,61.4746094 C261.581056,65.3808789 262.850575,68.4895718 265.09668,70.8007812 C267.342785,73.0794385 270.223615,74.21875 273.739258,74.21875 C276.473646,74.21875 278.735994,73.5677148 280.526367,72.265625 C282.284188,70.9635352 284.286122,68.5547051 286.532227,65.0390625 L295.80957,70.2148438 C294.377271,72.6562622 292.863615,74.7477126 291.268555,76.4892578 C289.673495,78.230803 287.964527,79.6630803 286.141602,80.7861328 C284.318676,81.9091853 282.349294,82.7311172 280.233398,83.2519531 C278.117502,83.7727891 275.822604,84.0332031 273.348633,84.0332031 C266.252243,84.0332031 260.555686,81.7545801 256.258789,77.1972656 C251.961893,72.6073989 249.813477,66.5202202 249.813477,58.9355469 C249.813477,51.415978 251.896789,45.3287993 256.063477,40.6738281 C260.262716,36.0839614 265.829067,33.7890625 272.762695,33.7890625 C279.761428,33.7890625 285.295227,36.0188579 289.364258,40.4785156 C293.400736,44.9056211 295.418945,51.0416274 295.418945,58.8867188 L295.370117,61.4746094 Z M284.09082,52.4902344 C282.560865,46.6308301 278.86624,43.7011719 273.006836,43.7011719 C271.672194,43.7011719 270.418951,43.9046204 269.24707,44.3115234 C268.075189,44.7184265 267.009119,45.3043582 266.048828,46.0693359 C265.088537,46.8343137 264.266605,47.7539009 263.583008,48.828125 C262.899411,49.9023491 262.378583,51.12304 262.020508,52.4902344 L284.09082,52.4902344 Z" id="reface"></path>
                </g>
                <ellipse id="Oval" fill="#3544C9" cx="157" cy="60" rx="4" ry="11"></ellipse>
            </g>
        </g>
    </g>
</svg>