<svg width="162" height="44" viewBox="0 0 162 44" fill="none" xmlns="http://www.w3.org/2000/svg">
    <path d="M52.588 19.124C53.188 18.02 54.076 17.18 55.252 16.604C56.428 16.028 57.856 15.74 59.536 15.74V19.088C59.344 19.064 59.08 19.052 58.744 19.052C56.872 19.052 55.396 19.616 54.316 20.744C53.26 21.848 52.732 23.432 52.732 25.496V35H49.276V15.92H52.588V19.124ZM72.2238 32.192C74.5038 32.192 76.3398 31.424 77.7318 29.888L79.6038 32.12C78.7638 33.128 77.6958 33.896 76.3998 34.424C75.1278 34.952 73.6998 35.216 72.1158 35.216C70.0998 35.216 68.3118 34.808 66.7518 33.992C65.1918 33.152 63.9798 31.988 63.1158 30.5C62.2758 29.012 61.8558 27.332 61.8558 25.46C61.8558 23.612 62.2638 21.944 63.0798 20.456C63.9198 18.968 65.0598 17.816 66.4998 17C67.9638 16.16 69.6078 15.74 71.4318 15.74C73.1598 15.74 74.7318 16.136 76.1478 16.928C77.5638 17.696 78.6918 18.788 79.5318 20.204C80.3718 21.62 80.8038 23.252 80.8278 25.1L65.6718 28.052C66.1518 29.372 66.9558 30.392 68.0838 31.112C69.2358 31.832 70.6158 32.192 72.2238 32.192ZM71.4318 18.656C70.2318 18.656 69.1518 18.932 68.1918 19.484C67.2558 20.036 66.5238 20.816 65.9958 21.824C65.4678 22.808 65.2038 23.96 65.2038 25.28V25.64L77.4078 23.336C77.0958 21.944 76.3998 20.816 75.3198 19.952C74.2398 19.088 72.9438 18.656 71.4318 18.656ZM92.1427 10.916C90.0787 10.916 89.0467 12.032 89.0467 14.264V15.92H94.6267V18.764H89.1187V35H85.6627V14.228C85.6627 12.332 86.2147 10.832 87.3187 9.728C88.4227 8.624 89.9707 8.072 91.9627 8.072C92.7307 8.072 93.4507 8.168 94.1227 8.36C94.7947 8.552 95.3707 8.828 95.8507 9.188L94.8067 11.816C94.0147 11.216 93.1267 10.916 92.1427 10.916ZM115.581 15.92V35H112.269V31.976C111.501 33.032 110.529 33.836 109.353 34.388C108.177 34.94 106.881 35.216 105.465 35.216C103.617 35.216 101.961 34.808 100.497 33.992C99.0327 33.176 97.8807 32.036 97.0407 30.572C96.2247 29.084 95.8167 27.38 95.8167 25.46C95.8167 23.54 96.2247 21.848 97.0407 20.384C97.8807 18.92 99.0327 17.78 100.497 16.964C101.961 16.148 103.617 15.74 105.465 15.74C106.833 15.74 108.093 16.004 109.245 16.532C110.397 17.036 111.357 17.792 112.125 18.8V15.92H115.581ZM105.753 32.192C106.953 32.192 108.045 31.916 109.029 31.364C110.013 30.788 110.781 29.996 111.333 28.988C111.885 27.956 112.161 26.78 112.161 25.46C112.161 24.14 111.885 22.976 111.333 21.968C110.781 20.936 110.013 20.144 109.029 19.592C108.045 19.04 106.953 18.764 105.753 18.764C104.529 18.764 103.425 19.04 102.441 19.592C101.481 20.144 100.713 20.936 100.137 21.968C99.5847 22.976 99.3087 24.14 99.3087 25.46C99.3087 26.78 99.5847 27.956 100.137 28.988C100.713 29.996 101.481 30.788 102.441 31.364C103.425 31.916 104.529 32.192 105.753 32.192ZM130.436 35.216C128.492 35.216 126.752 34.796 125.216 33.956C123.704 33.116 122.516 31.964 121.652 30.5C120.788 29.012 120.356 27.332 120.356 25.46C120.356 23.588 120.788 21.92 121.652 20.456C122.516 18.968 123.704 17.816 125.216 17C126.752 16.16 128.492 15.74 130.436 15.74C132.164 15.74 133.7 16.088 135.044 16.784C136.412 17.48 137.468 18.488 138.212 19.808L135.584 21.5C134.984 20.588 134.24 19.904 133.352 19.448C132.464 18.992 131.48 18.764 130.4 18.764C129.152 18.764 128.024 19.04 127.016 19.592C126.032 20.144 125.252 20.936 124.676 21.968C124.124 22.976 123.848 24.14 123.848 25.46C123.848 26.804 124.124 27.992 124.676 29.024C125.252 30.032 126.032 30.812 127.016 31.364C128.024 31.916 129.152 32.192 130.4 32.192C131.48 32.192 132.464 31.964 133.352 31.508C134.24 31.052 134.984 30.368 135.584 29.456L138.212 31.112C137.468 32.432 136.412 33.452 135.044 34.172C133.7 34.868 132.164 35.216 130.436 35.216ZM151.009 32.192C153.289 32.192 155.125 31.424 156.517 29.888L158.389 32.12C157.549 33.128 156.481 33.896 155.185 34.424C153.913 34.952 152.485 35.216 150.901 35.216C148.885 35.216 147.097 34.808 145.537 33.992C143.977 33.152 142.765 31.988 141.901 30.5C141.061 29.012 140.641 27.332 140.641 25.46C140.641 23.612 141.049 21.944 141.865 20.456C142.705 18.968 143.845 17.816 145.285 17C146.749 16.16 148.393 15.74 150.217 15.74C151.945 15.74 153.517 16.136 154.933 16.928C156.349 17.696 157.477 18.788 158.317 20.204C159.157 21.62 159.589 23.252 159.613 25.1L144.457 28.052C144.937 29.372 145.741 30.392 146.869 31.112C148.021 31.832 149.401 32.192 151.009 32.192ZM150.217 18.656C149.017 18.656 147.937 18.932 146.977 19.484C146.041 20.036 145.309 20.816 144.781 21.824C144.253 22.808 143.989 23.96 143.989 25.28V25.64L156.193 23.336C155.881 21.944 155.185 20.816 154.105 19.952C153.025 19.088 151.729 18.656 150.217 18.656Z" fill="white"/>
    <path fill-rule="evenodd" clip-rule="evenodd" d="M32 31C35.3137 31 38 28.3137 38 25C38 21.6863 35.3137 19 32 19C28.6863 19 26 21.6863 26 25C26 28.3137 28.6863 31 32 31Z" fill="#3544C9"/>
    <path fill-rule="evenodd" clip-rule="evenodd" d="M16.5 30C18.9853 30 21 27.9853 21 25.5C21 23.0147 18.9853 21 16.5 21C14.0147 21 12 23.0147 12 25.5C12 27.9853 14.0147 30 16.5 30Z" fill="#3544C9"/>
    <path fill-rule="evenodd" clip-rule="evenodd" d="M3.5 29C5.433 29 7 27.433 7 25.5C7 23.567 5.433 22 3.5 22C1.567 22 0 23.567 0 25.5C0 27.433 1.567 29 3.5 29Z" fill="#3544C9"/>
</svg>