<svg width="281" height="163" viewBox="0 0 281 163" fill="none" xmlns="http://www.w3.org/2000/svg">
    <path d="M1 120.187C1 109.333 1.79612 99.8066 5.3822 93.6579C9.58895 86.9568 16.6025 89.5268 18.5288 95.1933C21.9532 103.292 21.6678 110.515 22.911 120.187C23.5397 125.078 23.616 136.214 29.071 140.069C46.9945 146.066 41.9005 111.252 41.9005 102.188C41.9005 94.2941 40.7602 83.9815 47.7738 81.8169C56.3434 79.1721 55.9563 94.5812 56.4267 99.0319C57.2307 106.637 55.6998 137.686 68.0351 141.783C89.855 144.352 77.7762 98.5216 84.0104 89.5268C98.0375 79.6753 94.2499 113.37 96.4789 122.936C97.1661 125.886 99.1008 141.158 105.441 142.639C114.205 144.196 116.58 131.786 117.909 123.793C119.551 113.916 119.45 104.728 120.78 94.7668C121.806 87.0897 122.195 86.1002 128.819 86.1002C128.819 86.1002 132.326 86.9568 132.716 95.5233C132.716 103.248 133.495 125.934 135.387 133.579C138.24 145.102 145.393 142.432 147.132 136.214C150.319 118.225 148.906 105.105 150.319 87.0897C152.064 64.8523 153.367 26.9913 157.653 7.28828C158.584 3.00502 159.211 0.435092 164.927 1.1059C168.952 2.5767 168.952 10.2866 169.309 11.8539C171.68 31.7028 171.825 50.9775 171.825 70.7118C171.825 71.844 171.824 72.9758 171.821 74.1071C171.79 90.4925 171.506 106.788 170.364 123.002C169.467 135.728 168.173 160.201 170.364 161.485C173.238 163.171 173.549 159.467 174.797 150.777C175.966 134.073 176.229 121.602 178.304 106.66C179.473 95.5234 180.252 85.6719 182.131 75.2328C182.796 71.5371 184.728 72.7419 184.728 76.0005C184.728 83.9586 184.517 92.1074 184.148 99.8066C183.369 116.083 182.2 131.026 182.2 146.494C182.2 149.66 181.421 168.339 186.096 159.772C187.655 158.916 190.772 123.044 190.772 104.947C190.772 92.0091 190.772 72.3443 190.772 66.8256C190.772 62.5423 191.147 55.1059 193.492 56.04C195.837 56.9741 195.058 63.399 195.058 65.5406C195.058 91.0998 196.227 116.008 196.227 140.498C196.227 143.019 196.076 158.06 200.124 158.06C207.838 158.06 202.851 121.651 202.851 114.386C202.851 102.984 200.903 82.2453 204.799 80.532C209.475 78.476 208.723 84.598 209.475 90.3835C211.033 102.377 210.644 113.085 211.423 125.934C211.267 127.989 212.335 162.626 217.919 158.06C224.503 152.678 223.112 140.498 221.164 123.002C219.631 109.23 215.946 106.499 216.488 96.8083C216.566 95.4201 233.257 109.816 233.257 114.386C233.257 116.277 232.092 130.597 234.068 131.191C243.188 133.929 244.156 107.759 252.246 103.979C255.266 102.569 256.667 137.206 264.581 128.887C267.572 125.743 267.404 117.577 273.021 124.793C277.068 129.992 278.082 137.512 280 143.559" stroke="white" stroke-linecap="round" stroke-linejoin="round"/>
</svg>