<svg width="220" height="220" viewBox="0 0 220 220" fill="none" xmlns="http://www.w3.org/2000/svg">
<path d="M32.1921 127C32.1921 127 66.8607 148.128 105.563 148.128C144.265 148.128 187 127 187 127" stroke="#232323" stroke-width="2.3431" stroke-linecap="round"/>
<path d="M32 131.226C32 131.226 62.347 157.155 104.218 159.844C139.751 162.126 186.808 133.423 186.808 133.423" stroke="#232323" stroke-width="2.3431" stroke-linecap="round"/>
<path d="M128.205 145.823C123.566 150.947 116.861 154.167 109.404 154.167C102.629 154.167 96.474 151.509 91.9258 147.179L109.98 148.32L128.205 145.823Z" fill="white" stroke="#212121" stroke-width="2.51"/>
<path d="M44.202 150.598L61.0865 127.987" stroke="#232323" stroke-width="2.3431" stroke-linecap="round"/>
<path d="M62.3423 164.042L76.2755 133.53" stroke="#232323" stroke-width="2.3431" stroke-linecap="round"/>
<path d="M84.3806 171.79L92.283 138.908" stroke="#232323" stroke-width="2.3431" stroke-linecap="round"/>
<path d="M157.517 131.61L165.326 160.42" stroke="#232323" stroke-width="2.3431" stroke-linecap="round"/>
<path d="M134.76 136.988L139.212 168.648" stroke="#232323" stroke-width="2.3431" stroke-linecap="round"/>
<path d="M110.338 174.103L112.523 139.293" stroke="#232323" stroke-width="2.3431" stroke-linecap="round"/>
</svg>
