<svg width="220" height="220" viewBox="0 0 220 220" fill="none" xmlns="http://www.w3.org/2000/svg">
<path d="M31.0002 122.332C31.0002 122.332 69.7885 91.532 108.576 91.532C147.365 91.532 186.153 122.332 186.153 122.332" stroke="#212121" stroke-width="2.51367" stroke-linecap="round"/>
<path d="M31.0002 128.877C31.0002 128.877 69.7885 159.677 108.576 159.677C147.365 159.677 186.153 128.877 186.153 128.877" stroke="#212121" stroke-width="2.51367" stroke-linecap="round"/>
<path d="M132.729 124.257C132.729 137.596 121.916 148.409 108.576 148.409C95.2368 148.409 84.4238 137.596 84.4238 124.257C84.4238 110.918 95.2368 100.104 108.576 100.104C121.916 100.104 132.729 110.918 132.729 124.257Z" fill="white" stroke="#212121" stroke-width="2.51367"/>
<path fill-rule="evenodd" clip-rule="evenodd" d="M117.238 125.797C122.022 125.797 125.901 121.918 125.901 117.134C125.901 112.35 122.022 108.472 117.238 108.472C112.454 108.472 108.576 112.35 108.576 117.134C108.576 121.918 112.454 125.797 117.238 125.797Z" fill="#3544C9"/>
<path d="M31 74.7852L48.3248 101.35" stroke="#212121" stroke-width="2.51367" stroke-linecap="round"/>
<path d="M58.8572 60.6289L72.3162 89.3462" stroke="#212121" stroke-width="2.51367" stroke-linecap="round"/>
<path d="M89.9441 53L97.6766 83.7578" stroke="#212121" stroke-width="2.51367" stroke-linecap="round"/>
<path d="M188.847 74.8386L171.523 101.403" stroke="#212121" stroke-width="2.51367" stroke-linecap="round"/>
<path d="M160.99 60.6829L147.531 89.4002" stroke="#212121" stroke-width="2.51367" stroke-linecap="round"/>
<path d="M129.903 53.0537L122.17 83.8115" stroke="#212121" stroke-width="2.51367" stroke-linecap="round"/>
</svg>
