<svg width="349" height="464" viewBox="0 0 349 464" fill="none" xmlns="http://www.w3.org/2000/svg">
<rect y="66.5137" width="313.474" height="315.351" rx="26.0355" fill="url(#paint0_linear)"/>
<path d="M76.1602 275.939C76.1602 275.939 94.4082 310.154 148.392 312.435C202.376 314.716 222.145 275.939 222.145 275.939" stroke="black" stroke-width="7.81064" stroke-linecap="round" stroke-linejoin="round"/>
<mask id="mask0" mask-type="alpha" maskUnits="userSpaceOnUse" x="27" y="106" width="30" height="30">
<path fill-rule="evenodd" clip-rule="evenodd" d="M44.3773 108.96C44.3773 107.522 43.2117 106.357 41.7738 106.357C40.3359 106.357 39.1702 107.522 39.1702 108.96V118.098H30.0337C28.5958 118.098 27.4302 119.263 27.4302 120.701C27.4302 122.139 28.5958 123.305 30.0337 123.305H39.1702V132.441C39.1702 133.879 40.3359 135.045 41.7738 135.045C43.2117 135.045 44.3773 133.879 44.3773 132.441V123.305H53.5144C54.9523 123.305 56.118 122.139 56.118 120.701C56.118 119.263 54.9523 118.098 53.5144 118.098H44.3773V108.96Z" fill="#5B00FF"/>
</mask>
<g mask="url(#mask0)">
<g filter="url(#filter0_bdii)">
<circle cx="42.5604" cy="110.4" r="47.0399" fill="url(#paint1_linear)"/>
<circle cx="42.5604" cy="110.4" r="43.897" stroke="url(#paint2_radial)" stroke-opacity="0.05" stroke-width="6.28571"/>
</g>
</g>
<circle cx="291.888" cy="80.5915" r="44.1116" fill="#5B00FF"/>
<g filter="url(#filter1_bdii)">
<circle cx="288.959" cy="79.0399" r="47.0399" fill="url(#paint3_linear)"/>
<circle cx="288.959" cy="79.0399" r="43.897" stroke="url(#paint4_radial)" stroke-opacity="0.05" stroke-width="6.28571"/>
</g>
<mask id="mask1" mask-type="alpha" maskUnits="userSpaceOnUse" x="231" y="295" width="34" height="35">
<path d="M233.45 315.012C231.62 314.024 231.704 311.37 233.594 310.5V310.5C238.442 308.268 242.403 304.477 244.844 299.73L245.471 298.511C246.503 296.505 249.382 296.537 250.367 298.566L250.765 299.385C253.172 304.339 257.249 308.286 262.28 310.531V310.531C264.168 311.373 264.251 314.023 262.419 314.981L261.828 315.29C257.051 317.79 253.152 321.689 250.653 326.466L250.487 326.783C249.409 328.842 246.476 328.876 245.35 326.844L244.936 326.097C242.416 321.547 238.644 317.816 234.067 315.345L233.45 315.012Z" fill="#5B00FF"/>
</mask>
<g mask="url(#mask1)">
<g filter="url(#filter2_bdii)">
<circle cx="253.118" cy="311.999" r="47.0399" fill="url(#paint5_linear)"/>
<circle cx="253.118" cy="311.999" r="43.897" stroke="url(#paint6_radial)" stroke-opacity="0.05" stroke-width="6.28571"/>
</g>
</g>
<path d="M58.1899 160.368C58.1899 160.368 65.7933 174.587 88.2865 175.535C110.78 176.483 119.017 160.368 119.017 160.368" stroke="black" stroke-width="7.81064" stroke-linecap="round" stroke-linejoin="round"/>
<circle cx="119.392" cy="159.679" r="5.82399" fill="black"/>
<circle cx="57.7922" cy="159.679" r="5.82399" fill="black"/>
<path d="M193.53 160.368C193.53 160.368 201.133 174.587 223.626 175.535C246.12 176.483 254.357 160.368 254.357 160.368" stroke="black" stroke-width="7.81064" stroke-linecap="round" stroke-linejoin="round"/>
<circle cx="254.687" cy="159.679" r="5.82399" fill="black"/>
<circle cx="193.178" cy="159.679" r="5.82399" fill="black"/>
<path d="M70.6747 417.752V435.64H96.4061V441.944H70.6747V462.691H63.3438V411.374H99.5584V417.752H70.6747Z" fill="black"/>
<path d="M122.74 423.47C128.116 423.47 132.221 424.79 135.055 427.429C137.939 430.068 139.381 434.002 139.381 439.232V462.691H132.71V457.559C131.537 459.367 129.851 460.76 127.651 461.738C125.501 462.666 122.935 463.13 119.954 463.13C115.604 463.13 112.11 462.08 109.471 459.978C106.88 457.877 105.585 455.115 105.585 451.694C105.585 448.273 106.831 445.536 109.324 443.484C111.817 441.382 115.775 440.331 121.2 440.331H132.343V438.938C132.343 435.908 131.463 433.587 129.704 431.974C127.944 430.361 125.354 429.555 121.933 429.555C119.636 429.555 117.388 429.946 115.189 430.728C112.989 431.461 111.132 432.463 109.617 433.733L106.685 428.455C108.689 426.842 111.083 425.621 113.869 424.79C116.655 423.91 119.612 423.47 122.74 423.47ZM121.127 457.706C123.815 457.706 126.136 457.119 128.091 455.946C130.046 454.724 131.463 453.014 132.343 450.814V445.39H121.493C115.531 445.39 112.55 447.393 112.55 451.401C112.55 453.356 113.307 454.895 114.822 456.019C116.337 457.144 118.439 457.706 121.127 457.706Z" fill="black"/>
<path d="M170.653 463.13C166.695 463.13 163.151 462.275 160.023 460.565C156.945 458.854 154.525 456.508 152.766 453.527C151.006 450.497 150.127 447.076 150.127 443.264C150.127 439.452 151.006 436.055 152.766 433.074C154.525 430.044 156.945 427.698 160.023 426.036C163.151 424.326 166.695 423.47 170.653 423.47C174.172 423.47 177.3 424.179 180.037 425.596C182.823 427.013 184.973 429.066 186.488 431.754L181.136 435.2C179.915 433.343 178.4 431.95 176.591 431.021C174.783 430.092 172.779 429.628 170.58 429.628C168.039 429.628 165.742 430.19 163.689 431.314C161.685 432.438 160.097 434.051 158.924 436.153C157.8 438.205 157.238 440.576 157.238 443.264C157.238 446.001 157.8 448.42 158.924 450.521C160.097 452.574 161.685 454.162 163.689 455.286C165.742 456.41 168.039 456.972 170.58 456.972C172.779 456.972 174.783 456.508 176.591 455.58C178.4 454.651 179.915 453.258 181.136 451.401L186.488 454.773C184.973 457.461 182.823 459.538 180.037 461.004C177.3 462.422 174.172 463.13 170.653 463.13Z" fill="black"/>
<path d="M231.242 443.484C231.242 444.021 231.193 444.73 231.095 445.61H199.572C200.012 449.031 201.502 451.792 204.044 453.893C206.634 455.946 209.835 456.972 213.647 456.972C218.29 456.972 222.029 455.409 224.864 452.281L228.749 456.826C226.99 458.878 224.79 460.442 222.151 461.518C219.561 462.593 216.653 463.13 213.427 463.13C209.322 463.13 205.681 462.3 202.504 460.638C199.328 458.927 196.86 456.557 195.1 453.527C193.39 450.497 192.534 447.076 192.534 443.264C192.534 439.5 193.365 436.104 195.027 433.074C196.737 430.044 199.059 427.698 201.991 426.036C204.972 424.326 208.32 423.47 212.035 423.47C215.749 423.47 219.048 424.326 221.931 426.036C224.864 427.698 227.136 430.044 228.749 433.074C230.411 436.104 231.242 439.574 231.242 443.484ZM212.035 429.408C208.662 429.408 205.828 430.435 203.531 432.487C201.283 434.54 199.963 437.228 199.572 440.551H224.497C224.106 437.277 222.762 434.613 220.465 432.561C218.217 430.459 215.407 429.408 212.035 429.408Z" fill="black"/>
<path d="M242.114 408.295H249.151V462.691H242.114V408.295Z" fill="black"/>
<defs>
<filter id="filter0_bdii" x="-180.479" y="-112.64" width="446.079" height="446.079" filterUnits="userSpaceOnUse" color-interpolation-filters="sRGB">
<feFlood flood-opacity="0" result="BackgroundImageFix"/>
<feGaussianBlur in="BackgroundImage" stdDeviation="87.9999"/>
<feComposite in2="SourceAlpha" operator="in" result="effect1_backgroundBlur"/>
<feColorMatrix in="SourceAlpha" type="matrix" values="0 0 0 0 0 0 0 0 0 0 0 0 0 0 0 0 0 0 127 0"/>
<feOffset dx="-12.5714" dy="-6.28571"/>
<feGaussianBlur stdDeviation="12.5714"/>
<feColorMatrix type="matrix" values="0 0 0 0 1 0 0 0 0 1 0 0 0 0 1 0 0 0 0.4 0"/>
<feBlend mode="normal" in2="effect1_backgroundBlur" result="effect2_dropShadow"/>
<feBlend mode="normal" in="SourceGraphic" in2="effect2_dropShadow" result="shape"/>
<feColorMatrix in="SourceAlpha" type="matrix" values="0 0 0 0 0 0 0 0 0 0 0 0 0 0 0 0 0 0 127 0" result="hardAlpha"/>
<feOffset dx="-25.1428" dy="-18.8571"/>
<feGaussianBlur stdDeviation="12.5714"/>
<feComposite in2="hardAlpha" operator="arithmetic" k2="-1" k3="1"/>
<feColorMatrix type="matrix" values="0 0 0 0 0.466732 0 0 0 0 0.466732 0 0 0 0 0.466732 0 0 0 0.2 0"/>
<feBlend mode="normal" in2="shape" result="effect3_innerShadow"/>
<feColorMatrix in="SourceAlpha" type="matrix" values="0 0 0 0 0 0 0 0 0 0 0 0 0 0 0 0 0 0 127 0" result="hardAlpha"/>
<feOffset dx="18.8571" dy="18.8571"/>
<feGaussianBlur stdDeviation="15.7143"/>
<feComposite in2="hardAlpha" operator="arithmetic" k2="-1" k3="1"/>
<feColorMatrix type="matrix" values="0 0 0 0 0.954167 0 0 0 0 0.954167 0 0 0 0 0.954167 0 0 0 0.4 0"/>
<feBlend mode="normal" in2="effect3_innerShadow" result="effect4_innerShadow"/>
</filter>
<filter id="filter1_bdii" x="65.9197" y="-144" width="446.079" height="446.079" filterUnits="userSpaceOnUse" color-interpolation-filters="sRGB">
<feFlood flood-opacity="0" result="BackgroundImageFix"/>
<feGaussianBlur in="BackgroundImage" stdDeviation="87.9999"/>
<feComposite in2="SourceAlpha" operator="in" result="effect1_backgroundBlur"/>
<feColorMatrix in="SourceAlpha" type="matrix" values="0 0 0 0 0 0 0 0 0 0 0 0 0 0 0 0 0 0 127 0"/>
<feOffset dx="-12.5714" dy="-6.28571"/>
<feGaussianBlur stdDeviation="12.5714"/>
<feColorMatrix type="matrix" values="0 0 0 0 1 0 0 0 0 1 0 0 0 0 1 0 0 0 0.4 0"/>
<feBlend mode="normal" in2="effect1_backgroundBlur" result="effect2_dropShadow"/>
<feBlend mode="normal" in="SourceGraphic" in2="effect2_dropShadow" result="shape"/>
<feColorMatrix in="SourceAlpha" type="matrix" values="0 0 0 0 0 0 0 0 0 0 0 0 0 0 0 0 0 0 127 0" result="hardAlpha"/>
<feOffset dx="-25.1428" dy="-18.8571"/>
<feGaussianBlur stdDeviation="12.5714"/>
<feComposite in2="hardAlpha" operator="arithmetic" k2="-1" k3="1"/>
<feColorMatrix type="matrix" values="0 0 0 0 0.466732 0 0 0 0 0.466732 0 0 0 0 0.466732 0 0 0 0.2 0"/>
<feBlend mode="normal" in2="shape" result="effect3_innerShadow"/>
<feColorMatrix in="SourceAlpha" type="matrix" values="0 0 0 0 0 0 0 0 0 0 0 0 0 0 0 0 0 0 127 0" result="hardAlpha"/>
<feOffset dx="18.8571" dy="18.8571"/>
<feGaussianBlur stdDeviation="15.7143"/>
<feComposite in2="hardAlpha" operator="arithmetic" k2="-1" k3="1"/>
<feColorMatrix type="matrix" values="0 0 0 0 0.954167 0 0 0 0 0.954167 0 0 0 0 0.954167 0 0 0 0.4 0"/>
<feBlend mode="normal" in2="effect3_innerShadow" result="effect4_innerShadow"/>
</filter>
<filter id="filter2_bdii" x="30.0784" y="88.9597" width="446.079" height="446.079" filterUnits="userSpaceOnUse" color-interpolation-filters="sRGB">
<feFlood flood-opacity="0" result="BackgroundImageFix"/>
<feGaussianBlur in="BackgroundImage" stdDeviation="87.9999"/>
<feComposite in2="SourceAlpha" operator="in" result="effect1_backgroundBlur"/>
<feColorMatrix in="SourceAlpha" type="matrix" values="0 0 0 0 0 0 0 0 0 0 0 0 0 0 0 0 0 0 127 0"/>
<feOffset dx="-12.5714" dy="-6.28571"/>
<feGaussianBlur stdDeviation="12.5714"/>
<feColorMatrix type="matrix" values="0 0 0 0 1 0 0 0 0 1 0 0 0 0 1 0 0 0 0.4 0"/>
<feBlend mode="normal" in2="effect1_backgroundBlur" result="effect2_dropShadow"/>
<feBlend mode="normal" in="SourceGraphic" in2="effect2_dropShadow" result="shape"/>
<feColorMatrix in="SourceAlpha" type="matrix" values="0 0 0 0 0 0 0 0 0 0 0 0 0 0 0 0 0 0 127 0" result="hardAlpha"/>
<feOffset dx="-25.1428" dy="-18.8571"/>
<feGaussianBlur stdDeviation="12.5714"/>
<feComposite in2="hardAlpha" operator="arithmetic" k2="-1" k3="1"/>
<feColorMatrix type="matrix" values="0 0 0 0 0.466732 0 0 0 0 0.466732 0 0 0 0 0.466732 0 0 0 0.2 0"/>
<feBlend mode="normal" in2="shape" result="effect3_innerShadow"/>
<feColorMatrix in="SourceAlpha" type="matrix" values="0 0 0 0 0 0 0 0 0 0 0 0 0 0 0 0 0 0 127 0" result="hardAlpha"/>
<feOffset dx="18.8571" dy="18.8571"/>
<feGaussianBlur stdDeviation="15.7143"/>
<feComposite in2="hardAlpha" operator="arithmetic" k2="-1" k3="1"/>
<feColorMatrix type="matrix" values="0 0 0 0 0.954167 0 0 0 0 0.954167 0 0 0 0 0.954167 0 0 0 0.4 0"/>
<feBlend mode="normal" in2="effect3_innerShadow" result="effect4_innerShadow"/>
</filter>
<linearGradient id="paint0_linear" x1="-9.38547" y1="19.5864" x2="156.737" y2="381.865" gradientUnits="userSpaceOnUse">
<stop stop-color="#EEEEEE"/>
<stop offset="0.801174" stop-color="#EEEEEE" stop-opacity="0"/>
</linearGradient>
<linearGradient id="paint1_linear" x1="-4.47949" y1="63.3599" x2="290.193" y2="52.411" gradientUnits="userSpaceOnUse">
<stop stop-color="#2700FF"/>
<stop offset="1" stop-color="#32FC00"/>
</linearGradient>
<radialGradient id="paint2_radial" cx="0" cy="0" r="1" gradientUnits="userSpaceOnUse" gradientTransform="translate(75.4883 166.848) rotate(-122.905) scale(95.2485)">
<stop/>
<stop offset="0.919655" stop-color="#0B2033" stop-opacity="0"/>
</radialGradient>
<linearGradient id="paint3_linear" x1="241.919" y1="32" x2="536.592" y2="21.0511" gradientUnits="userSpaceOnUse">
<stop stop-color="#2700FF"/>
<stop offset="1" stop-color="#32FC00"/>
</linearGradient>
<radialGradient id="paint4_radial" cx="0" cy="0" r="1" gradientUnits="userSpaceOnUse" gradientTransform="translate(321.887 135.488) rotate(-122.905) scale(95.2485)">
<stop/>
<stop offset="0.919655" stop-color="#0B2033" stop-opacity="0"/>
</radialGradient>
<linearGradient id="paint5_linear" x1="206.078" y1="264.959" x2="500.751" y2="254.011" gradientUnits="userSpaceOnUse">
<stop stop-color="#2700FF"/>
<stop offset="1" stop-color="#32FC00"/>
</linearGradient>
<radialGradient id="paint6_radial" cx="0" cy="0" r="1" gradientUnits="userSpaceOnUse" gradientTransform="translate(286.046 368.447) rotate(-122.905) scale(95.2485)">
<stop/>
<stop offset="0.919655" stop-color="#0B2033" stop-opacity="0"/>
</radialGradient>
</defs>
</svg>
