<svg width="80" height="108" viewBox="0 0 80 108" fill="none" xmlns="http://www.w3.org/2000/svg">
<rect y="18.704" width="69.9721" height="70.3911" rx="8.87574" fill="url(#paint0_linear)"/>
<path d="M17 65.4508C17 65.4508 21.0732 73.0881 33.1232 73.5973C45.1732 74.1064 49.5859 65.4508 49.5859 65.4508" stroke="black" stroke-width="2.66272" stroke-linecap="round" stroke-linejoin="round"/>
<mask id="mask0" mask-type="alpha" maskUnits="userSpaceOnUse" x="5" y="27" width="8" height="8">
<path fill-rule="evenodd" clip-rule="evenodd" d="M10.2122 28.1787C10.2122 27.6885 9.81486 27.2911 9.32466 27.2911C8.83447 27.2911 8.43709 27.6885 8.43709 28.1787V29.9118H6.70398C6.21379 29.9118 5.81641 30.3091 5.81641 30.7993C5.81641 31.2895 6.21379 31.6869 6.70398 31.6869H8.43709V33.42C8.43709 33.9101 8.83447 34.3075 9.32466 34.3075C9.81486 34.3075 10.2122 33.9101 10.2122 33.42V31.6869H11.9452C12.4354 31.6869 12.8328 31.2895 12.8328 30.7993C12.8328 30.3091 12.4354 29.9118 11.9452 29.9118H10.2122V28.1787Z" fill="#5B00FF"/>
</mask>
<g mask="url(#mask0)">
<g filter="url(#filter0_bdii)">
<circle cx="9.5" cy="28.5" r="10.5" fill="url(#paint1_linear)"/>
<circle cx="9.5" cy="28.5" r="9.42857" stroke="url(#paint2_radial)" stroke-opacity="0.05" stroke-width="2.14286"/>
</g>
</g>
<circle cx="65.1537" cy="21.8464" r="9.84637" fill="#5B00FF"/>
<g filter="url(#filter1_bdii)">
<circle cx="64.5" cy="21.5" r="10.5" fill="url(#paint3_linear)"/>
<circle cx="64.5" cy="21.5" r="9.42857" stroke="url(#paint4_radial)" stroke-opacity="0.05" stroke-width="2.14286"/>
</g>
<mask id="mask1" mask-type="alpha" maskUnits="userSpaceOnUse" x="51" y="69" width="9" height="9">
<path d="M52.1097 74.1726C51.701 73.952 51.7199 73.3595 52.1417 73.1653V73.1653C53.224 72.6672 54.1081 71.8208 54.6529 70.7614L54.7929 70.4891C55.0231 70.0414 55.6658 70.0487 55.8858 70.5016L55.9746 70.6842C56.5118 71.7902 57.422 72.6712 58.5449 73.1722V73.1722C58.9663 73.3602 58.9848 73.9516 58.5759 74.1656L58.4441 74.2346C57.3778 74.7925 56.5074 75.6628 55.9495 76.7291L55.9124 76.8C55.672 77.2594 55.0171 77.2672 54.7659 76.8136L54.6735 76.6469C54.1111 75.6313 53.269 74.7983 52.2474 74.2469L52.1097 74.1726Z" fill="#5B00FF"/>
</mask>
<g mask="url(#mask1)">
<g filter="url(#filter2_bdii)">
<circle cx="56.5" cy="73.5" r="10.5" fill="url(#paint5_linear)"/>
<circle cx="56.5" cy="73.5" r="9.42857" stroke="url(#paint6_radial)" stroke-opacity="0.05" stroke-width="2.14286"/>
</g>
</g>
<path d="M12.9888 39.6537C12.9888 39.6537 14.686 42.8275 19.7068 43.0391C24.7276 43.2507 26.5662 39.6537 26.5662 39.6537" stroke="black" stroke-width="2.66272" stroke-linecap="round" stroke-linejoin="round"/>
<circle cx="26.6501" cy="39.5" r="1.3" fill="black"/>
<circle cx="12.9001" cy="39.5" r="1.3" fill="black"/>
<path d="M43.1987 39.6537C43.1987 39.6537 44.8959 42.8275 49.9167 43.0391C54.9376 43.2507 56.7762 39.6537 56.7762 39.6537" stroke="black" stroke-width="2.66272" stroke-linecap="round" stroke-linejoin="round"/>
<circle cx="56.85" cy="39.5" r="1.3" fill="black"/>
<circle cx="43.1201" cy="39.5" r="1.3" fill="black"/>
<path d="M14.1679 107L11.7519 103.56C11.4533 103.581 11.2186 103.592 11.0479 103.592H8.27993V107H6.67993V95.8H11.0479C12.4986 95.8 13.6399 96.1466 14.4719 96.84C15.3039 97.5333 15.7199 98.488 15.7199 99.704C15.7199 100.568 15.5066 101.304 15.0799 101.912C14.6533 102.52 14.0453 102.963 13.2559 103.24L15.9119 107H14.1679ZM10.9999 102.232C12.0133 102.232 12.7866 102.013 13.3199 101.576C13.8533 101.139 14.1199 100.515 14.1199 99.704C14.1199 98.8933 13.8533 98.2746 13.3199 97.848C12.7866 97.4106 12.0133 97.192 10.9999 97.192H8.27993V102.232H10.9999Z" fill="black"/>
<path d="M26.1449 102.808C26.1449 102.925 26.1343 103.08 26.1129 103.272H19.2329C19.3289 104.019 19.6543 104.621 20.2089 105.08C20.7743 105.528 21.4729 105.752 22.3049 105.752C23.3183 105.752 24.1343 105.411 24.7529 104.728L25.6009 105.72C25.2169 106.168 24.7369 106.509 24.1609 106.744C23.5956 106.979 22.9609 107.096 22.2569 107.096C21.3609 107.096 20.5663 106.915 19.8729 106.552C19.1796 106.179 18.6409 105.661 18.2569 105C17.8836 104.339 17.6969 103.592 17.6969 102.76C17.6969 101.939 17.8783 101.197 18.2409 100.536C18.6143 99.8746 19.1209 99.3626 19.7609 99C20.4116 98.6266 21.1423 98.44 21.9529 98.44C22.7636 98.44 23.4836 98.6266 24.1129 99C24.7529 99.3626 25.2489 99.8746 25.6009 100.536C25.9636 101.197 26.1449 101.955 26.1449 102.808ZM21.9529 99.736C21.2169 99.736 20.5983 99.96 20.0969 100.408C19.6063 100.856 19.3183 101.443 19.2329 102.168H24.6729C24.5876 101.453 24.2943 100.872 23.7929 100.424C23.3023 99.9653 22.6889 99.736 21.9529 99.736Z" fill="black"/>
<path d="M31.7818 96.296C30.8645 96.296 30.4058 96.792 30.4058 97.784V98.52H32.8698V99.784H30.4378V107H28.9018V99.784H27.4618V98.52H28.9018V97.768C28.9018 96.9253 29.1471 96.2586 29.6378 95.768C30.1285 95.2773 30.8165 95.032 31.7018 95.032C32.0431 95.032 32.3631 95.0746 32.6618 95.16C32.9605 95.2453 33.2165 95.368 33.4298 95.528L32.9658 96.696C32.6138 96.4293 32.2191 96.296 31.7818 96.296Z" fill="black"/>
<path d="M37.6502 98.44C38.8235 98.44 39.7195 98.728 40.3382 99.304C40.9675 99.88 41.2822 100.739 41.2822 101.88V107H39.8262V105.88C39.5702 106.275 39.2022 106.579 38.7222 106.792C38.2528 106.995 37.6928 107.096 37.0422 107.096C36.0928 107.096 35.3302 106.867 34.7542 106.408C34.1888 105.949 33.9062 105.347 33.9062 104.6C33.9062 103.853 34.1782 103.256 34.7222 102.808C35.2662 102.349 36.1302 102.12 37.3142 102.12H39.7462V101.816C39.7462 101.155 39.5542 100.648 39.1702 100.296C38.7862 99.944 38.2208 99.768 37.4742 99.768C36.9728 99.768 36.4822 99.8533 36.0022 100.024C35.5222 100.184 35.1168 100.403 34.7862 100.68L34.1462 99.528C34.5835 99.176 35.1062 98.9093 35.7142 98.728C36.3222 98.536 36.9675 98.44 37.6502 98.44ZM37.2982 105.912C37.8848 105.912 38.3915 105.784 38.8182 105.528C39.2449 105.261 39.5542 104.888 39.7462 104.408V103.224H37.3782C36.0768 103.224 35.4262 103.661 35.4262 104.536C35.4262 104.963 35.5915 105.299 35.9222 105.544C36.2528 105.789 36.7115 105.912 37.2982 105.912Z" fill="black"/>
<path d="M48.2676 107.096C47.4036 107.096 46.6302 106.909 45.9476 106.536C45.2756 106.163 44.7476 105.651 44.3636 105C43.9796 104.339 43.7876 103.592 43.7876 102.76C43.7876 101.928 43.9796 101.187 44.3636 100.536C44.7476 99.8746 45.2756 99.3626 45.9476 99C46.6302 98.6266 47.4036 98.44 48.2676 98.44C49.0356 98.44 49.7182 98.5946 50.3156 98.904C50.9236 99.2133 51.3929 99.6613 51.7236 100.248L50.5556 101C50.2889 100.595 49.9582 100.291 49.5636 100.088C49.1689 99.8853 48.7316 99.784 48.2516 99.784C47.6969 99.784 47.1956 99.9066 46.7476 100.152C46.3102 100.397 45.9636 100.749 45.7076 101.208C45.4622 101.656 45.3396 102.173 45.3396 102.76C45.3396 103.357 45.4622 103.885 45.7076 104.344C45.9636 104.792 46.3102 105.139 46.7476 105.384C47.1956 105.629 47.6969 105.752 48.2516 105.752C48.7316 105.752 49.1689 105.651 49.5636 105.448C49.9582 105.245 50.2889 104.941 50.5556 104.536L51.7236 105.272C51.3929 105.859 50.9236 106.312 50.3156 106.632C49.7182 106.941 49.0356 107.096 48.2676 107.096Z" fill="black"/>
<path d="M61.6512 102.808C61.6512 102.925 61.6405 103.08 61.6192 103.272H54.7392C54.8352 104.019 55.1605 104.621 55.7152 105.08C56.2805 105.528 56.9792 105.752 57.8112 105.752C58.8245 105.752 59.6405 105.411 60.2592 104.728L61.1072 105.72C60.7232 106.168 60.2432 106.509 59.6672 106.744C59.1018 106.979 58.4672 107.096 57.7632 107.096C56.8672 107.096 56.0725 106.915 55.3792 106.552C54.6858 106.179 54.1472 105.661 53.7632 105C53.3898 104.339 53.2032 103.592 53.2032 102.76C53.2032 101.939 53.3845 101.197 53.7472 100.536C54.1205 99.8746 54.6272 99.3626 55.2672 99C55.9178 98.6266 56.6485 98.44 57.4592 98.44C58.2698 98.44 58.9898 98.6266 59.6192 99C60.2592 99.3626 60.7552 99.8746 61.1072 100.536C61.4698 101.197 61.6512 101.955 61.6512 102.808ZM57.4592 99.736C56.7232 99.736 56.1045 99.96 55.6032 100.408C55.1125 100.856 54.8245 101.443 54.7392 102.168H60.1792C60.0938 101.453 59.8005 100.872 59.2992 100.424C58.8085 99.9653 58.1952 99.736 57.4592 99.736Z" fill="black"/>
<defs>
<filter id="filter0_bdii" x="-61" y="-42" width="141" height="141" filterUnits="userSpaceOnUse" color-interpolation-filters="sRGB">
<feFlood flood-opacity="0" result="BackgroundImageFix"/>
<feGaussianBlur in="BackgroundImage" stdDeviation="30"/>
<feComposite in2="SourceAlpha" operator="in" result="effect1_backgroundBlur"/>
<feColorMatrix in="SourceAlpha" type="matrix" values="0 0 0 0 0 0 0 0 0 0 0 0 0 0 0 0 0 0 127 0"/>
<feOffset dx="-4.28571" dy="-2.14286"/>
<feGaussianBlur stdDeviation="4.28571"/>
<feColorMatrix type="matrix" values="0 0 0 0 1 0 0 0 0 1 0 0 0 0 1 0 0 0 0.4 0"/>
<feBlend mode="normal" in2="effect1_backgroundBlur" result="effect2_dropShadow"/>
<feBlend mode="normal" in="SourceGraphic" in2="effect2_dropShadow" result="shape"/>
<feColorMatrix in="SourceAlpha" type="matrix" values="0 0 0 0 0 0 0 0 0 0 0 0 0 0 0 0 0 0 127 0" result="hardAlpha"/>
<feOffset dx="-8.57143" dy="-6.42857"/>
<feGaussianBlur stdDeviation="4.28571"/>
<feComposite in2="hardAlpha" operator="arithmetic" k2="-1" k3="1"/>
<feColorMatrix type="matrix" values="0 0 0 0 0.466732 0 0 0 0 0.466732 0 0 0 0 0.466732 0 0 0 0.2 0"/>
<feBlend mode="normal" in2="shape" result="effect3_innerShadow"/>
<feColorMatrix in="SourceAlpha" type="matrix" values="0 0 0 0 0 0 0 0 0 0 0 0 0 0 0 0 0 0 127 0" result="hardAlpha"/>
<feOffset dx="6.42857" dy="6.42857"/>
<feGaussianBlur stdDeviation="5.35714"/>
<feComposite in2="hardAlpha" operator="arithmetic" k2="-1" k3="1"/>
<feColorMatrix type="matrix" values="0 0 0 0 0.954167 0 0 0 0 0.954167 0 0 0 0 0.954167 0 0 0 0.4 0"/>
<feBlend mode="normal" in2="effect3_innerShadow" result="effect4_innerShadow"/>
</filter>
<filter id="filter1_bdii" x="-6" y="-49" width="141" height="141" filterUnits="userSpaceOnUse" color-interpolation-filters="sRGB">
<feFlood flood-opacity="0" result="BackgroundImageFix"/>
<feGaussianBlur in="BackgroundImage" stdDeviation="30"/>
<feComposite in2="SourceAlpha" operator="in" result="effect1_backgroundBlur"/>
<feColorMatrix in="SourceAlpha" type="matrix" values="0 0 0 0 0 0 0 0 0 0 0 0 0 0 0 0 0 0 127 0"/>
<feOffset dx="-4.28571" dy="-2.14286"/>
<feGaussianBlur stdDeviation="4.28571"/>
<feColorMatrix type="matrix" values="0 0 0 0 1 0 0 0 0 1 0 0 0 0 1 0 0 0 0.4 0"/>
<feBlend mode="normal" in2="effect1_backgroundBlur" result="effect2_dropShadow"/>
<feBlend mode="normal" in="SourceGraphic" in2="effect2_dropShadow" result="shape"/>
<feColorMatrix in="SourceAlpha" type="matrix" values="0 0 0 0 0 0 0 0 0 0 0 0 0 0 0 0 0 0 127 0" result="hardAlpha"/>
<feOffset dx="-8.57143" dy="-6.42857"/>
<feGaussianBlur stdDeviation="4.28571"/>
<feComposite in2="hardAlpha" operator="arithmetic" k2="-1" k3="1"/>
<feColorMatrix type="matrix" values="0 0 0 0 0.466732 0 0 0 0 0.466732 0 0 0 0 0.466732 0 0 0 0.2 0"/>
<feBlend mode="normal" in2="shape" result="effect3_innerShadow"/>
<feColorMatrix in="SourceAlpha" type="matrix" values="0 0 0 0 0 0 0 0 0 0 0 0 0 0 0 0 0 0 127 0" result="hardAlpha"/>
<feOffset dx="6.42857" dy="6.42857"/>
<feGaussianBlur stdDeviation="5.35714"/>
<feComposite in2="hardAlpha" operator="arithmetic" k2="-1" k3="1"/>
<feColorMatrix type="matrix" values="0 0 0 0 0.954167 0 0 0 0 0.954167 0 0 0 0 0.954167 0 0 0 0.4 0"/>
<feBlend mode="normal" in2="effect3_innerShadow" result="effect4_innerShadow"/>
</filter>
<filter id="filter2_bdii" x="-14" y="3" width="141" height="141" filterUnits="userSpaceOnUse" color-interpolation-filters="sRGB">
<feFlood flood-opacity="0" result="BackgroundImageFix"/>
<feGaussianBlur in="BackgroundImage" stdDeviation="30"/>
<feComposite in2="SourceAlpha" operator="in" result="effect1_backgroundBlur"/>
<feColorMatrix in="SourceAlpha" type="matrix" values="0 0 0 0 0 0 0 0 0 0 0 0 0 0 0 0 0 0 127 0"/>
<feOffset dx="-4.28571" dy="-2.14286"/>
<feGaussianBlur stdDeviation="4.28571"/>
<feColorMatrix type="matrix" values="0 0 0 0 1 0 0 0 0 1 0 0 0 0 1 0 0 0 0.4 0"/>
<feBlend mode="normal" in2="effect1_backgroundBlur" result="effect2_dropShadow"/>
<feBlend mode="normal" in="SourceGraphic" in2="effect2_dropShadow" result="shape"/>
<feColorMatrix in="SourceAlpha" type="matrix" values="0 0 0 0 0 0 0 0 0 0 0 0 0 0 0 0 0 0 127 0" result="hardAlpha"/>
<feOffset dx="-8.57143" dy="-6.42857"/>
<feGaussianBlur stdDeviation="4.28571"/>
<feComposite in2="hardAlpha" operator="arithmetic" k2="-1" k3="1"/>
<feColorMatrix type="matrix" values="0 0 0 0 0.466732 0 0 0 0 0.466732 0 0 0 0 0.466732 0 0 0 0.2 0"/>
<feBlend mode="normal" in2="shape" result="effect3_innerShadow"/>
<feColorMatrix in="SourceAlpha" type="matrix" values="0 0 0 0 0 0 0 0 0 0 0 0 0 0 0 0 0 0 127 0" result="hardAlpha"/>
<feOffset dx="6.42857" dy="6.42857"/>
<feGaussianBlur stdDeviation="5.35714"/>
<feComposite in2="hardAlpha" operator="arithmetic" k2="-1" k3="1"/>
<feColorMatrix type="matrix" values="0 0 0 0 0.954167 0 0 0 0 0.954167 0 0 0 0 0.954167 0 0 0 0.4 0"/>
<feBlend mode="normal" in2="effect3_innerShadow" result="effect4_innerShadow"/>
</filter>
<linearGradient id="paint0_linear" x1="-2.09497" y1="8.22912" x2="34.986" y2="89.095" gradientUnits="userSpaceOnUse">
<stop stop-color="#EEEEEE"/>
<stop offset="0.801174" stop-color="#EEEEEE" stop-opacity="0"/>
</linearGradient>
<linearGradient id="paint1_linear" x1="-1" y1="18" x2="64.7753" y2="15.5561" gradientUnits="userSpaceOnUse">
<stop stop-color="#2700FF"/>
<stop offset="1" stop-color="#32FC00"/>
</linearGradient>
<radialGradient id="paint2_radial" cx="0" cy="0" r="1" gradientUnits="userSpaceOnUse" gradientTransform="translate(16.85 41.1) rotate(-122.905) scale(21.2609)">
<stop/>
<stop offset="0.919655" stop-color="#0B2033" stop-opacity="0"/>
</radialGradient>
<linearGradient id="paint3_linear" x1="54" y1="11" x2="119.775" y2="8.55605" gradientUnits="userSpaceOnUse">
<stop stop-color="#2700FF"/>
<stop offset="1" stop-color="#32FC00"/>
</linearGradient>
<radialGradient id="paint4_radial" cx="0" cy="0" r="1" gradientUnits="userSpaceOnUse" gradientTransform="translate(71.85 34.1) rotate(-122.905) scale(21.2609)">
<stop/>
<stop offset="0.919655" stop-color="#0B2033" stop-opacity="0"/>
</radialGradient>
<linearGradient id="paint5_linear" x1="46" y1="63" x2="111.775" y2="60.5561" gradientUnits="userSpaceOnUse">
<stop stop-color="#2700FF"/>
<stop offset="1" stop-color="#32FC00"/>
</linearGradient>
<radialGradient id="paint6_radial" cx="0" cy="0" r="1" gradientUnits="userSpaceOnUse" gradientTransform="translate(63.85 86.1) rotate(-122.905) scale(21.2609)">
<stop/>
<stop offset="0.919655" stop-color="#0B2033" stop-opacity="0"/>
</radialGradient>
</defs>
</svg>
